<?xml version="1.0" encoding="UTF-8"?>
<svg width="22px" height="22px" viewBox="0 0 22 22" version="1.1" xmlns="http://www.w3.org/2000/svg" xmlns:xlink="http://www.w3.org/1999/xlink">
    <title>我的备份 3</title>
    <g id="页面-1" stroke="none" stroke-width="1" fill="none" fill-rule="evenodd">
        <g id="我的" transform="translate(-654.000000, -692.000000)" fill-rule="nonzero">
            <g id="我的备份-3" transform="translate(654.000000, 692.248980)">
                <rect id="矩形" fill="#000000" opacity="0" x="0" y="0" width="22" height="21.5510204"></rect>
                <path d="M6.6,5.60326531 C6.6,7.98372529 8.5699471,9.91346939 11,9.91346939 C13.4300529,9.91346939 15.4,7.98372529 15.4,5.60326531 C15.4,3.22280532 13.4300529,1.29306122 11,1.29306122 C8.5699471,1.29306122 6.6,3.22280532 6.6,5.60326531 L6.6,5.60326531 Z" id="路径" fill="#999999"></path>
                <path d="M8.8,11.2065306 L13.2,11.2065306 C17.08828,11.2065306 20.24,14.2939298 20.24,18.1028571 L20.24,18.5338776 C20.24,19.4860615 19.4520212,20.2579592 18.48,20.2579592 L3.52,20.2579592 C2.54797884,20.2579592 1.76,19.4860615 1.76,18.5338776 L1.76,18.1028571 C1.76,14.2939298 4.91172,11.2065306 8.8,11.2065306 L8.8,11.2065306 Z" id="路径" fill="#999999"></path>
            </g>
        </g>
    </g>
</svg>