<?xml version="1.0" encoding="UTF-8"?>
<svg width="22px" height="22px" viewBox="0 0 22 22" version="1.1" xmlns="http://www.w3.org/2000/svg" xmlns:xlink="http://www.w3.org/1999/xlink">
    <title>首页-fill备份</title>
    <g id="页面-1" stroke="none" stroke-width="1" fill="none" fill-rule="evenodd">
        <g id="我的" transform="translate(-386.000000, -692.000000)" fill-rule="nonzero">
            <g id="首页-fill备份" transform="translate(386.000000, 692.000000)">
                <rect id="矩形" fill="#000000" opacity="0" x="0" y="0" width="22" height="22"></rect>
                <path d="M20.1392575,9.29346548 L11.7576012,2.72148497 C11.0414917,2.15353603 9.91970433,2.15353603 9.20359482,2.72148497 L0.88543592,9.29699311 C0.599697636,9.52276163 0.553838414,9.93549471 0.776079302,10.2177054 C0.998320189,10.499916 1.4145809,10.5493029 1.69679155,10.327062 L1.96489166,10.115404 L1.96489166,18.0631614 C1.96489166,19.1884764 3.13253823,20.0315807 4.17671762,20.0315807 L17.2995128,20.0315807 C18.3295817,20.0315807 19.0245254,19.2413909 19.0245254,18.0631614 L19.0245254,10.0942382 L19.3208466,10.327062 C19.4407862,10.4223081 19.5818915,10.4681673 19.7265244,10.4681673 C19.9205443,10.4681673 20.1145641,10.3835041 20.2450865,10.2177053 C20.4743827,9.93196708 20.4214682,9.519234 20.1392575,9.29346548 Z M12.4666555,17.3470519 L12.4666555,18.7157736 L11.154376,18.7157736 L9.84209643,18.7157736 L8.52981691,18.7157736 L8.52981691,17.3470519 L8.52981691,15.0435075 C8.52981691,14.2815387 9.1471527,13.4596002 10.4982362,13.4596002 C11.8528473,13.4596002 12.4666555,14.2815387 12.4666555,15.0435075 L12.4666555,17.3470519 L12.4666555,17.3470519 Z" id="形状" fill="#D82138"></path>
            </g>
        </g>
    </g>
</svg>