<?xml version="1.0" encoding="UTF-8"?>
<svg width="22px" height="22px" viewBox="0 0 22 22" version="1.1" xmlns="http://www.w3.org/2000/svg" xmlns:xlink="http://www.w3.org/1999/xlink">
    <title>我的待办</title>
    <defs>
        <rect id="path-1" x="0" y="686" width="360" height="48"></rect>
        <filter x="-2.1%" y="-15.6%" width="104.2%" height="131.3%" filterUnits="objectBoundingBox" id="filter-2">
            <feOffset dx="0" dy="0" in="SourceAlpha" result="shadowOffsetOuter1"></feOffset>
            <feGaussianBlur stdDeviation="2.5" in="shadowOffsetOuter1" result="shadowBlurOuter1"></feGaussianBlur>
            <feColorMatrix values="0 0 0 0 0   0 0 0 0 0   0 0 0 0 0  0 0 0 0.103693182 0" type="matrix" in="shadowBlurOuter1"></feColorMatrix>
        </filter>
    </defs>
    <g id="页面-1" stroke="none" stroke-width="1" fill="none" fill-rule="evenodd">
        <g id="我的" transform="translate(-131.000000, -692.000000)">
            <rect id="背景" fill="#F5F5F5" x="0" y="0" width="360" height="734"></rect>
            <g id="矩形备份-11">
                <use fill="black" fill-opacity="1" filter="url(#filter-2)" xlink:href="#path-1"></use>
                <use fill="#FFFFFF" fill-rule="evenodd" xlink:href="#path-1"></use>
            </g>
            <g id="编组-8备份" transform="translate(124.000000, 713.408163)" fill="#666666" font-family="PingFangSC-Regular, PingFang SC" font-size="12" font-weight="normal" letter-spacing="0.368571818">
                <g id="编组-6备份">
                    <text id="待办">
                        <tspan x="5.13142818" y="13">待办</tspan>
                    </text>
                </g>
            </g>
            <g id="我的待办" transform="translate(131.000000, 692.000000)" fill-rule="nonzero">
                <rect id="矩形" fill="#000000" opacity="0" x="0" y="0" width="22" height="22"></rect>
                <path d="M10.4995508,20.8212891 C5.59857422,20.8212891 1.62276367,17.1044531 1.62276367,12.5161328 C1.62276367,7.92893555 5.59722656,4.21097656 10.4995508,4.21097656 C15.401875,4.21097656 19.3774609,7.92893555 19.3774609,12.5161328 C19.3774609,17.1033301 15.402998,20.8212891 10.4995508,20.8212891 Z M10.9007031,7.94870117 C10.9007031,7.7121875 10.6956348,7.52126953 10.4425,7.52126953 C10.1904883,7.52126953 9.98654297,7.7121875 9.98654297,7.94870117 L9.98654297,12.7328809 L7.87858398,14.706748 C7.70001953,14.8743066 7.70001953,15.1424902 7.87858398,15.3102734 C7.96326172,15.3906836 8.07983398,15.4360547 8.20157227,15.4360547 C8.32308594,15.4360547 8.4396582,15.3906836 8.52433594,15.3102734 L10.7677344,13.211748 C10.8524121,13.1313379 10.9007031,13.0230762 10.9007031,12.909873 L10.9007031,7.94870117 Z M6.33259766,4.27611328 L6.33259766,2.96529297 C6.33259766,2.96529297 6.5062207,2.17871094 7.3925293,2.17871094 L13.6076953,2.17871094 C14.4964746,2.17871094 14.5524023,2.96529297 14.5524023,2.96529297 L14.5524023,4.27723633 C13.1822852,3.70740234 11.8808984,3.38014648 10.4425,3.38014648 C9.00410156,3.38014648 7.70249023,3.70740234 6.33259766,4.27611328 L6.33259766,4.27611328 Z" id="形状" fill="#999999"></path>
            </g>
        </g>
    </g>
</svg>