<?xml version="1.0" encoding="UTF-8"?>
<svg width="22px" height="22px" viewBox="0 0 22 22" version="1.1" xmlns="http://www.w3.org/2000/svg" xmlns:xlink="http://www.w3.org/1999/xlink">
    <title>消息备份</title>
    <g id="页面-1" stroke="none" stroke-width="1" fill="none" fill-rule="evenodd">
        <g id="我的" transform="translate(-568.000000, -692.000000)" fill-rule="nonzero">
            <g id="消息备份" transform="translate(568.000000, 692.000000)">
                <rect id="矩形" fill="#000000" opacity="0" x="0" y="0" width="22" height="22"></rect>
                <path d="M19.7148438,10.9824219 C19.7148438,6.171875 15.8144531,2.26953125 11.0019531,2.26953125 C6.18945312,2.26953125 2.2890625,6.171875 2.2890625,10.9824219 C2.2890625,15.7949219 6.18945312,19.6953125 11.0019531,19.6953125 L18.7929688,19.6953125 C19.0664062,19.6953125 19.2871094,19.4746094 19.2871094,19.2050781 L17.6210938,16.6484375 C18.9277344,15.125 19.7148438,13.1464844 19.7148438,10.9824219 Z" id="路径" fill="#D82138"></path>
                <path d="M14.7050781,9.67578125 C14.1035156,9.67578125 13.6152344,10.1640625 13.6152344,10.765625 C13.6152344,11.3671875 14.1035156,11.8554688 14.7050781,11.8554688 C15.3066406,11.8554688 15.7949219,11.3671875 15.7949219,10.765625 C15.7949219,10.1640625 15.3066406,9.67578125 14.7050781,9.67578125 L14.7050781,9.67578125 Z M6.86328125,9.67578125 C6.26171875,9.67578125 5.7734375,10.1640625 5.7734375,10.765625 C5.7734375,11.3671875 6.26171875,11.8554688 6.86328125,11.8554688 C7.46484375,11.8554688 7.953125,11.3671875 7.953125,10.765625 C7.953125,10.1640625 7.46484375,9.67578125 6.86328125,9.67578125 L6.86328125,9.67578125 Z M10.7851562,9.67578125 C10.1835938,9.67578125 9.6953125,10.1640625 9.6953125,10.765625 C9.6953125,11.3671875 10.1835938,11.8554688 10.7851562,11.8554688 C11.3867188,11.8554688 11.875,11.3671875 11.875,10.765625 C11.8730469,10.1640625 11.3867188,9.67578125 10.7851562,9.67578125 L10.7851562,9.67578125 Z" id="形状" fill="#FFFFFF"></path>
            </g>
        </g>
    </g>
</svg>