<?xml version="1.0" encoding="UTF-8"?>
<svg width="161px" height="71px" viewBox="0 0 161 71" version="1.1" xmlns="http://www.w3.org/2000/svg" xmlns:xlink="http://www.w3.org/1999/xlink">
    <title>编组 3</title>
    <defs>
        <linearGradient x1="100%" y1="59.7237761%" x2="0%" y2="40.2762239%" id="linearGradient-1">
            <stop stop-color="#DEF9FE" offset="0%"></stop>
            <stop stop-color="#80DCF0" offset="100%"></stop>
        </linearGradient>
        <linearGradient x1="50%" y1="0%" x2="50%" y2="100%" id="linearGradient-2">
            <stop stop-color="#66E9E6" offset="0%"></stop>
            <stop stop-color="#36CFC9" offset="100%"></stop>
        </linearGradient>
    </defs>
    <g id="页面-1" stroke="none" stroke-width="1" fill="none" fill-rule="evenodd">
        <g id="首页-待办" transform="translate(-183.000000, -261.000000)">
            <rect id="矩形备份-5" fill="#FFFFFF" x="0" y="4" width="360" height="984"></rect>
            <g id="编组-3" transform="translate(183.000000, 261.000000)">
                <rect id="矩形备份" fill="url(#linearGradient-1)" opacity="0.4" x="0" y="0" width="161" height="71" rx="4"></rect>
                <g id="采购审批" opacity="0.203157552" transform="translate(109.000000, 13.776119)" fill-rule="nonzero">
                    <rect id="矩形" fill="#000000" opacity="0" x="0" y="0" width="48" height="50.8656716"></rect>
                    <path d="M40.7646887,39.4790752 C41.3286661,39.4520699 41.855958,39.1767974 42.2179637,38.7203938 C42.5799693,38.2639902 42.7434124,37.668409 42.6684308,37.0789061 L41.9038131,32.6895557 C41.5501628,30.8915029 40.0869142,29.5730683 38.3459999,29.4838504 L29.1861913,29.4838504 L28.437178,24.551996 C32.7136265,22.7466662 35.497068,18.3578668 35.4435733,13.5046423 C35.5978963,9.11418836 33.4626087,4.985839 29.8770319,2.74233185 C26.2914551,0.498824706 21.8288079,0.498824706 18.2432311,2.74233185 C14.6576543,4.985839 12.5223668,9.11418836 12.6766897,13.5046423 C12.6559254,18.3366259 15.4403517,22.6911466 19.6986894,24.4862379 L19.1369295,29.4180923 L10.0239343,29.4180923 C8.24287704,29.4226503 6.72246203,30.7748021 6.41930772,32.6237977 L5.65469,37.013148 C5.50388887,37.5806448 5.61290565,38.1897681 5.94951222,38.6604456 C6.28611879,39.1311231 6.81181018,39.4095134 7.37117879,39.4133171 L40.7646887,39.4790752 Z" id="路径" fill="url(#linearGradient-2)"></path>
                    <path d="M40.3676471,42.1594966 C40.9825853,42.1594966 41.5723373,42.3948306 42.0071643,42.8137277 C42.4419912,43.2326248 42.6862745,43.8007712 42.6862745,44.3931812 C42.6862745,44.9855911 42.4419912,45.5537375 42.0071643,45.9726346 C41.5723373,46.3915317 40.9825853,46.6268657 40.3676471,46.6268657 L7.90686275,46.6268657 C6.62632017,46.6268657 5.58823529,45.626811 5.58823529,44.3931812 C5.58823529,43.8007712 5.83251856,43.2326248 6.26734555,42.8137277 C6.70217255,42.3948306 7.29192452,42.1594966 7.90686275,42.1594966 L40.3676471,42.1594966 Z" id="路径" fill="#36CFC9"></path>
                    <path d="M31.0372149,12.6839781 C31.0372149,13.4543674 31.6265543,14.0788913 32.3535414,14.0788913 C33.0805285,14.0788913 33.6698679,13.4543674 33.6698679,12.6839781 C33.6698679,11.9135888 33.0805285,11.2890649 32.3535414,11.2890649 C31.6265543,11.2890649 31.0372149,11.9135888 31.0372149,12.6839781 Z" id="路径" fill="#B5F5EC"></path>
                    <path d="M24.9463945,5.55701286 C25.9914497,5.8936695 26.9714249,6.42549497 27.8401862,7.12745273 C28.5491851,7.88622705 29.1255364,8.77244189 29.5424166,9.74485252 C29.9084064,10.3305788 30.6325634,10.5283841 31.2198552,10.2030491 C31.807147,9.87771398 32.067702,9.13441938 31.8234054,8.48128019 C31.2226463,7.21076678 30.4160034,6.06209794 29.4402828,5.08768599 C28.3346274,4.14451466 27.0693561,3.43382299 25.7123982,2.99376618 C25.2806128,2.83576537 24.8021381,2.93404263 24.4572109,3.25157786 C24.1122836,3.5691131 23.9533064,4.05766515 24.0401644,4.5332012 C24.1270225,5.00873725 24.44652,5.39901204 24.8783053,5.55701286 L24.9463945,5.55701286 Z" id="路径" fill="#B5F5EC"></path>
                </g>
            </g>
            <text id="采购审批" font-family="PingFangSC-Medium, PingFang SC" font-size="16" font-weight="400" fill="#4D7A9E">
                <tspan x="192.5" y="293">采购审批</tspan>
            </text>
            <text id="待审批-18" font-family="PingFangSC-Medium, PingFang SC" font-size="12" font-weight="400" fill="#81B4CD">
                <tspan x="193.5" y="311">待审批 18</tspan>
            </text>
        </g>
    </g>
</svg>