<?xml version="1.0" encoding="UTF-8"?>
<svg width="161px" height="71px" viewBox="0 0 161 71" version="1.1" xmlns="http://www.w3.org/2000/svg" xmlns:xlink="http://www.w3.org/1999/xlink">
    <title>编组 4</title>
    <defs>
        <linearGradient x1="100%" y1="59.7237761%" x2="0%" y2="40.2762239%" id="linearGradient-1">
            <stop stop-color="#E6DEFF" offset="0%"></stop>
            <stop stop-color="#9D88F1" offset="100%"></stop>
        </linearGradient>
        <rect id="path-2" x="0" y="0" width="161" height="71" rx="4"></rect>
        <linearGradient x1="50%" y1="0%" x2="50%" y2="100%" id="linearGradient-4">
            <stop stop-color="#D5C8FF" offset="0%"></stop>
            <stop stop-color="#BDAEFF" offset="100%"></stop>
        </linearGradient>
    </defs>
    <g id="页面-1" stroke="none" stroke-width="1" fill="none" fill-rule="evenodd">
        <g id="首页-待办" transform="translate(-183.000000, -338.000000)">
            <rect id="矩形备份-5" fill="#FFFFFF" x="0" y="4" width="360" height="984"></rect>
            <g id="编组-4" transform="translate(183.149254, 338.000000)">
                <g id="路径-3">
                    <mask id="mask-3" fill="white">
                        <use xlink:href="#path-2"></use>
                    </mask>
                    <use id="蒙版" fill="url(#linearGradient-1)" opacity="0.4" xlink:href="#path-2"></use>
                    <path d="M24.5601405,72.6906615 C24.5601405,72.6906615 84.3557171,38.4453497 133.469071,70.9211272 C157.66131,86.9180344 146.885119,113.451891 114.203317,110.009732 C80.5368596,106.463865 24.5601405,72.6906615 24.5601405,72.6906615 Z" stroke="#D8CFFE" stroke-width="6" opacity="0.3" stroke-linecap="round" mask="url(#mask-3)" transform="translate(85.591501, 83.623343) rotate(-13.000000) translate(-85.591501, -83.623343) "></path>
                </g>
                <g id="采购查询" opacity="0.3" transform="translate(106.850746, 15.323741)">
                    <g id="高级查询" transform="translate(1.000000, 3.064748)" fill="url(#linearGradient-4)" fill-rule="nonzero">
                        <path d="M18.7670777,23.2258978 C19.7069375,24.1761449 21.2311939,24.1761449 22.1710537,23.2258978 L39.1003255,13.4106532 C40.0401853,12.4604061 40.0401853,10.9193038 39.1003255,9.9690567 L22.724354,0.712685306 C21.7844942,-0.237561769 20.2602378,-0.237561769 19.320378,0.712685306 L2.3911062,10.5279299 C1.45124639,11.478177 1.45124639,13.0192793 2.3911062,13.9695264 L18.7670777,23.2258978 Z M1.08023499,22.5163294 L17.2631948,32.464923 C18.1371089,33.2384555 19.2313781,33.6249508 20.3256473,33.6249508 C21.4236695,33.6249508 22.5216917,33.2357452 23.3972142,32.456792 L28.5029102,29.2515376 C28.4233709,28.7186583 28.3834058,28.1805056 28.3833502,27.6415924 C28.3833502,26.1536128 28.6846629,24.7366443 29.2277764,23.4492303 L20.6215986,28.8514906 L20.4382375,29.0368782 C20.375539,29.1000192 20.2741472,29.1000192 20.2114487,29.0368782 L20.0205816,28.8439016 L3.41460442,18.6345728 C2.35464844,17.9830058 0.972470118,18.3234252 0.327489312,19.3950957 C-0.317491494,20.4667663 0.0202790027,21.8647624 1.08023499,22.5163294 L1.08023499,22.5163294 Z M29.9756968,33.2834473 L20.6226709,39.1540553 L20.4393098,39.3394429 C20.3766113,39.4025838 20.2752195,39.4025838 20.212521,39.3394429 L20.0216539,39.1464663 L3.41460442,28.9376796 C2.35464844,28.2861125 0.972470118,28.6265319 0.327489312,29.6982025 C-0.317491494,30.769873 0.0197428591,32.1673271 1.07969885,32.8194362 L17.2626587,42.7680298 C18.1365728,43.5415623 19.230842,43.9280576 20.3251112,43.9280576 C21.4231333,43.9280576 22.5211555,43.538852 23.3966781,42.7598987 L33.1973839,36.6079569 C31.8963016,35.7508894 30.7966469,34.6161385 29.9756968,33.2834473 L29.9756968,33.2834473 Z M46.5226981,34.6359096 L43.0495596,31.1249283 C43.7047271,30.0575943 44.0837807,28.799452 44.0837807,27.4513262 C44.0837807,23.5977572 40.9939848,20.4738132 37.1825397,20.4738132 C33.3710945,20.4738132 30.2812987,23.5977572 30.2812987,27.4513262 C30.2812987,31.3048952 33.3710945,34.4288392 37.1825397,34.4288392 C38.4794711,34.4288392 39.6922281,34.0667371 40.7285937,33.4373949 L44.2183527,36.9657225 C44.8547552,37.6091584 45.8862956,37.6091584 46.5226981,36.9657225 C47.1591006,36.3222865 47.1591006,35.2793456 46.5226981,34.6359096 L46.5226981,34.6359096 Z M37.1830758,31.6702497 C34.8819473,31.6702497 33.0097337,29.7773446 33.0097337,27.4507841 C33.0097337,25.1242237 34.8819473,23.2313185 37.1830758,23.2313185 C39.4842043,23.2313185 41.3564179,25.1242237 41.3564179,27.4507841 C41.3564179,29.7773446 39.4842043,31.6702497 37.1830758,31.6702497 Z" id="形状"></path>
                    </g>
                    <path d="M22.8571123,6.69739775 C25.2707843,8.23827042 31.7577341,13.0828679 31.7577341,13.0828679 C31.7577341,13.0828679 33.0025301,16.0073326 29.8488482,15.174501 C26.6951663,14.3416693 21.0711758,9.35787749 20.2739955,8.23827042 C19.4768151,7.11866335 20.4434403,5.15652509 22.8571123,6.69739775 Z" id="路径-2" fill="#FFFFFF" opacity="0.329357329"></path>
                    <polygon id="矩形备份-8" fill="#000000" fill-rule="nonzero" opacity="0" points="0 0 48 0 48 27.6943406 48 49.0359712 0 49.0359712"></polygon>
                </g>
            </g>
            <text id="采购查询" font-family="PingFangSC-Medium, PingFang SC" font-size="16" font-weight="400" fill="#634D9E">
                <tspan x="192.5" y="369">采购查询</tspan>
            </text>
        </g>
    </g>
</svg>