<?xml version="1.0" encoding="UTF-8"?>
<svg width="161px" height="147px" viewBox="0 0 161 147" version="1.1" xmlns="http://www.w3.org/2000/svg" xmlns:xlink="http://www.w3.org/1999/xlink">
    <title>形状</title>
    <defs>
        <linearGradient x1="100%" y1="91.6824197%" x2="0%" y2="8.31758034%" id="linearGradient-1">
            <stop stop-color="#FFE7E7" offset="0%"></stop>
            <stop stop-color="#F3A8A8" offset="100%"></stop>
        </linearGradient>
        <rect id="path-2" x="0" y="0" width="161" height="147" rx="4"></rect>
    </defs>
    <g id="页面-1" stroke="none" stroke-width="1" fill="none" fill-rule="evenodd">
        <g id="首页-待办" transform="translate(-183.000000, -457.000000)">
            <rect id="矩形备份-5" fill="#FFFFFF" x="0" y="4" width="360" height="984"></rect>
            <g id="形状" transform="translate(183.000000, 457.000000)">
                <g id="蒙版">
                    <mask id="mask-3" fill="white">
                        <use xlink:href="#path-2"></use>
                    </mask>
                    <use fill="url(#linearGradient-1)" opacity="0.501581101" xlink:href="#path-2"></use>
                </g>
                <path d="M170.340105,39.3609163 L82.0498258,-14.0637526 C79.8325907,-15.3120825 77.1277971,-15.3120825 74.910562,-14.0637526 L-13.3308583,39.3609163 C-16.77881,41.403188 -18.0053811,45.8131683 -16.1098708,49.3525019 C-15.2101009,51.038974 -13.6722982,52.2913626 -11.8426655,52.8277196 C-10.0130328,53.3640767 -8.04534589,53.1393227 -6.38258659,52.2040563 L4.5187821,45.5915406 L4.5187821,149.834507 C4.47369536,152.754507 5.58779025,155.572572 7.61535455,157.667184 C9.64291885,159.761795 12.4173949,160.960886 15.3268755,161 L96.0588916,161 C96.0588916,161 99.7839824,141.722659 105.168782,135.986859 C110.553582,130.251059 152.536362,86.8343211 152.536362,86.8343211 L152.536362,45.6286895 L163.377027,52.2040563 C165.038987,53.1430843 167.007985,53.3699091 168.83871,52.8332318 C170.669436,52.2965545 172.207233,51.0417121 173.104312,49.3525019 C175.005647,45.8173468 173.785271,41.406138 170.340105,39.3609163 L170.340105,39.3609163 Z M52.1805971,143.995565 L26.777142,143.995565 C26.029916,143.986226 25.3172143,143.688284 24.7962717,143.167472 C24.275329,142.64666 23.9889541,141.945776 24.0003262,141.219446 L24.0003262,115.776119 C23.9893605,115.049904 24.2758687,114.349247 24.7967248,113.828521 C25.3175808,113.307796 26.0300455,113.009731 26.777142,113 L52.2018871,113 C52.9489836,113.009731 53.6614483,113.307796 54.1823044,113.828521 C54.7031605,114.349247 54.9896688,115.049904 54.9787031,115.776119 L54.9787031,141.22388 L55,141.22388 C55.0034215,142.744655 53.7449868,143.983773 52.1805971,144 L52.1805971,143.995565 Z M52.1805971,103.997044 L26.7771421,103.997044 C26.0297781,103.987315 25.31708,103.689061 24.7961801,103.16804 C24.2752803,102.647018 23.988953,101.946013 24.0003263,101.219579 L24.0003263,75.7774653 C23.988953,75.0510309 24.2752803,74.3500257 24.7961801,73.829004 C25.31708,73.3079823 26.0297781,73.0097284 26.7771421,73 L52.2018871,73 C52.9492511,73.0097284 53.6619493,73.3079822 54.1828492,73.8290039 C54.7037491,74.3500256 54.9900764,75.0510309 54.9787031,75.7774653 L54.9787031,101.222535 L55,101.222535 C55.0034292,102.743483 53.7452312,103.982969 52.1805971,104 L52.1805971,103.997044 Z M94,141.223616 C94.0106688,141.9499 93.7239803,142.650625 93.2027965,143.1714 C92.6816127,143.692175 91.9686997,143.990268 91.221133,144 L65.778867,144 C65.0313003,143.990268 64.3183873,143.692175 63.7972035,143.1714 C63.2760197,142.650625 62.9893312,141.9499 63,141.223616 L63,115.776384 C62.989737,115.050215 63.2765585,114.349716 63.797656,113.829028 C64.3187534,113.308339 65.0314297,113.010123 65.778867,113 L91.221133,113 C91.9685703,113.010123 92.6812466,113.308339 93.202344,113.829028 C93.7234415,114.349716 94.010263,115.050215 94,115.776384 L94,141.223616 Z M94,101.222535 C94.0106703,101.948855 93.7240296,102.649633 93.2028884,103.170568 C92.6817473,103.691504 91.9688376,103.98988 91.2211329,104 L65.7788671,104 C65.0311624,103.98988 64.3182527,103.691504 63.7971116,103.170568 C63.2759704,102.649633 62.9893297,101.948855 63,101.222535 L63,75.7774653 C62.9893296,75.0511455 63.2759703,74.3503669 63.7971115,73.8294316 C64.3182527,73.3084964 65.0311623,73.0101196 65.7788671,73 L91.2211329,73 C91.9688377,73.0101196 92.6817473,73.3084964 93.2028885,73.8294316 C93.7240297,74.3503669 94.0106704,75.0511455 94,75.7774653 L94,101.222535 Z M149.189117,106 L163,120.115787 L147.108409,136.296013 L141.205692,142.39709 C139.232709,144.375144 137.450088,146.180431 135.881441,147.790986 C134.290659,149.403006 132.996488,150.754409 131.956134,151.80859 C130.91578,152.862772 130.322557,153.467462 130.110059,153.613876 C129.593572,154.066296 129.050522,154.559712 128.413028,155.053127 C127.793144,155.533684 127.116764,155.937814 126.398726,156.256651 C125.404836,156.72038 124.392157,157.143385 123.363254,157.524598 C122.049899,158.022406 120.665712,158.515821 119.206265,158.988739 C117.746818,159.461657 116.389193,159.868688 115.074363,160.212761 C114.11228,160.498491 113.134209,160.728264 112.14514,160.900908 C111.213931,161.14936 110.21915,160.923995 109.488917,160.299146 C109.001884,159.452168 108.872438,158.448386 109.128851,157.507028 C109.300299,156.483594 109.534382,155.471465 109.829799,154.476256 C110.189864,153.165849 110.572065,151.79102 110.997061,150.351769 C111.367013,149.024358 111.769997,147.706228 112.205642,146.398588 C112.459662,145.54317 112.78596,144.710537 113.181066,143.909548 C113.46145,143.246686 113.795042,142.60724 114.178626,141.997379 C114.649441,141.313516 115.181889,140.673497 115.769408,140.08521 C116.066019,139.785061 116.766967,139.052991 117.84864,137.935851 C118.930313,136.818711 120.287938,135.401422 121.900855,133.76744 L121.900855,133.76744 L149.189117,106 Z M163.043198,94.0006492 L163.356333,94.0038277 C164.05329,94.0202091 164.744379,94.1339844 165.408996,94.3417611 C166.000566,94.5161033 166.575341,94.7417937 167.12659,95.0161899 C168.404382,95.7808802 169.549865,96.7426267 170.519529,97.8648967 C171.677696,99.1434412 172.644175,100.579287 173.389469,102.12861 C173.583245,102.630496 173.737638,103.146346 173.851282,103.6716 C173.964356,104.269785 174.013187,104.878076 173.996964,105.486374 C173.998478,106.142968 173.877487,106.794223 173.640043,107.407561 C173.374926,108.085069 172.984129,108.70783 172.487696,109.243906 C171.902054,109.81336 171.381968,110.341111 170.917242,110.784019 C170.452515,111.226928 170.057716,111.628134 169.724104,111.966068 C169.346787,112.345703 168.96947,112.703769 168.634401,113 L168.634401,113 L155,99.1950602 C155.587099,98.6673089 156.255781,98.0130122 157.073058,97.2537406 C157.890336,96.4944689 158.560474,95.8818746 159.08493,95.4389661 C159.713619,94.9354046 160.429908,94.5489929 161.198779,94.2986206 C161.895371,94.0783215 162.62531,93.9785878 163.356333,94.0038277 Z" fill="#EF993C" fill-rule="nonzero" opacity="0.1"></path>
            </g>
            <text id="下发库存盘点单" font-family="PingFangSC-Semibold, PingFang SC" font-size="18" font-weight="500" fill="#944545">
                <tspan x="193.5" y="493">下发库存盘点单</tspan>
            </text>
        </g>
    </g>
</svg>