<?xml version="1.0" encoding="UTF-8"?>
<svg width="161px" height="71px" viewBox="0 0 161 71" version="1.1" xmlns="http://www.w3.org/2000/svg" xmlns:xlink="http://www.w3.org/1999/xlink">
    <title>编组 10</title>
    <defs>
        <linearGradient x1="100%" y1="59.7237761%" x2="0%" y2="40.2762239%" id="linearGradient-1">
            <stop stop-color="#FFDEDE" offset="0%"></stop>
            <stop stop-color="#F18888" offset="100%"></stop>
        </linearGradient>
        <rect id="path-2" x="0" y="0" width="161" height="71" rx="4"></rect>
        <linearGradient x1="50%" y1="0%" x2="50%" y2="100%" id="linearGradient-4">
            <stop stop-color="#FEC8C8" offset="0%"></stop>
            <stop stop-color="#FD9B9B" offset="100%"></stop>
        </linearGradient>
    </defs>
    <g id="页面-1" stroke="none" stroke-width="1" fill="none" fill-rule="evenodd">
        <g id="首页-待办" transform="translate(-16.000000, -849.000000)">
            <rect id="矩形备份-5" fill="#FFFFFF" x="0" y="4" width="360" height="984"></rect>
            <g id="编组-10" transform="translate(16.000000, 849.000000)">
                <g id="路径-3备份-3">
                    <mask id="mask-3" fill="white">
                        <use xlink:href="#path-2"></use>
                    </mask>
                    <use id="蒙版" fill="url(#linearGradient-1)" opacity="0.3" xlink:href="#path-2"></use>
                </g>
                <g id="订单发货" transform="translate(105.000000, 16.310811)" fill-rule="nonzero">
                    <rect id="矩形" fill="#000000" opacity="0" x="0" y="0" width="48" height="46.0540541"></rect>
                    <path d="M12,19.7268455 C12.0002739,20.4893942 12.6650058,21.1075342 13.4851682,21.1079163 L34.3212114,21.1079163 C34.3584461,21.1086087 34.3964255,21.1074547 34.4336602,21.1039928 C34.4803277,21.1000693 34.5267469,21.0876065 34.5734144,21.081375 L34.5952588,21.0772207 C35.3378003,20.9506356 35.8590282,20.3249335 35.8051384,19.6248346 C35.8006702,19.5675977 35.3819039,15.1072743 37.9582971,5.55725257 C37.9582971,5.54686684 37.9582971,5.53855826 37.9627653,5.52863412 C37.9739357,5.48524486 37.9781556,5.43631655 37.9843614,5.38946538 C37.9930495,5.34192184 37.9982624,5.2939167 38,5.24591156 L38,5.21937026 C38,5.18867467 37.9913119,5.15774828 37.9888296,5.12705269 C37.9861901,5.0756168 37.9803051,5.02436932 37.9712052,4.97357473 C37.9616218,4.93143011 37.9497746,4.88975809 37.9357081,4.84871522 C37.9230828,4.80478279 37.9082555,4.76142314 37.8912747,4.71877824 C37.8730873,4.67672388 37.8525386,4.63558598 37.8297133,4.59553429 C37.8076207,4.55653011 37.7877622,4.51752594 37.7634355,4.48059891 C37.7368125,4.44369707 37.7081445,4.40810679 37.6775475,4.37397212 C37.6467668,4.33935303 37.6204543,4.30427236 37.5871913,4.27173041 C37.5539283,4.23918847 37.5191759,4.21241638 37.4859129,4.18518269 C37.4526499,4.15794901 37.4131811,4.12586865 37.3734641,4.09840418 C37.3333274,4.07269833 37.2914555,4.04941711 37.2481072,4.02870441 C37.2083896,4.0052018 37.1670993,3.9840797 37.124488,3.96546688 C37.0739923,3.94595732 37.0224587,3.92885633 36.9700881,3.91423063 C36.9368251,3.9038449 36.908775,3.88953568 36.8732779,3.8812271 C36.8643416,3.8812271 36.8529229,3.8812271 36.842249,3.8773036 C36.7955815,3.86691787 36.7432047,3.86299438 36.6923172,3.85699373 C36.6421745,3.8507623 36.5950105,3.84176133 36.5463572,3.83783784 L15.7132928,3.83783784 C15.6758099,3.83783784 15.6427951,3.84614642 15.607298,3.84822356 C15.5544247,3.85214706 15.5013032,3.85422421 15.4509123,3.86253279 C15.4005213,3.87084137 15.3538538,3.88515059 15.3054487,3.89738267 C15.2614257,3.90774956 15.2179392,3.91999459 15.1751272,3.9340789 C15.1331761,3.94838813 15.0820405,3.97539102 15.032146,3.99731644 C14.994663,4.01601075 14.9569319,4.03193553 14.9196972,4.05455333 C14.8766588,4.08025595 14.8352971,4.10830815 14.7958297,4.13856232 C14.7601949,4.16367882 14.7259763,4.19048649 14.6933102,4.21887861 C14.6575649,4.24980499 14.6270324,4.28442408 14.5940176,4.31950476 C14.5630594,4.35147437 14.5338949,4.38490695 14.5066402,4.41966932 C14.4783418,4.45659635 14.4542634,4.49767766 14.4277026,4.53852819 C14.403369,4.57489252 14.3812419,4.61249372 14.3614248,4.65115562 C14.3404805,4.69811826 14.3220882,4.74602998 14.3063175,4.79470944 C14.2951471,4.82540504 14.280005,4.85194634 14.2708204,4.88494987 C11.8922676,13.70774 11.9573042,18.379009 12.0210997,19.547057 C12.0097413,19.6064792 12.0026922,19.6665441 12,19.7268455 Z M18.3945859,7.67567568 L31.6049272,7.67567568 C32.3754046,7.67567568 33,8.32002262 33,9.11486486 C33,9.90970711 32.3754046,10.5540541 31.6049272,10.5540541 L18.3950728,10.5540541 C17.6245954,10.5540541 17,9.90970711 17,9.11486486 C17,8.32002262 17.6245954,7.67567568 18.3950728,7.67567568 L18.3945859,7.67567568 Z M41.0724194,20.1486486 C42.6949633,20.1851987 44.002196,21.4743102 44,23.0630361 L44,23.0630361 L44,40.2574409 C44,41.8690106 42.6575369,43.1756757 41.0029482,43.1756757 L41.0029482,43.1756757 L5.99460012,43.1756757 C4.34196833,43.1756757 3,41.8694915 3,40.2574409 L3,40.2574409 L3,23.0630361 C3,21.4743102 4.30503118,20.1849583 5.92928741,20.1486486 L5.92928741,20.1486486 L5.92928741,23.0243218 L41.0724194,23.0243218 Z M38.1431323,33.8190974 L8.8568625,33.8190974 L8.8568625,36.7007821 C8.85735174,38.2907103 10.1689876,39.5791004 11.7861499,39.5786196 L11.7861499,39.5786196 L35.2155569,39.5786196 C36.8332084,39.5781385 38.1438658,38.2887866 38.1431323,36.6988584 L38.1431323,36.6988584 L38.1431323,33.8190974 Z M38.8760042,25.1882301 C38.3530433,25.1887029 37.8700639,25.4633959 37.6089997,25.9088351 C37.3479355,26.3542744 37.3484483,26.9027871 37.6103451,27.3477538 C37.8722418,27.7927206 38.355734,28.0665487 38.878695,28.0660678 L38.878,28.0658378 L39.0184108,28.0599416 C39.7141389,27.9944893 40.26771,27.4503231 40.3342935,26.7664149 L40.3410148,26.6278705 C40.3400697,25.8311624 39.6842806,25.1876989 38.8760042,25.1882301 Z M30.6051919,14.3918919 C30.9751602,14.3918919 31.329972,14.5435283 31.5915562,14.8134359 C31.8531405,15.0833434 32,15.4494075 32,15.8310811 C32,16.2127547 31.8531405,16.5788187 31.5915562,16.8487263 C31.329972,17.1186338 30.9751602,17.2702703 30.6051919,17.2702703 L17.3950516,17.2702703 C16.6245859,17.2702703 16,16.6259233 16,15.8310811 C16,15.0362388 16.6245859,14.3918919 17.3950516,14.3918919 L30.6051919,14.3918919 Z" id="形状" fill="url(#linearGradient-4)" opacity="0.3"></path>
                </g>
            </g>
            <text id="订单发货" font-family="PingFangSC-Medium, PingFang SC" font-size="16" font-weight="400" fill="#944545">
                <tspan x="23.5" y="880">订单发货</tspan>
            </text>
        </g>
    </g>
</svg>