<?xml version="1.0" encoding="UTF-8"?>
<svg width="150px" height="72px" viewBox="0 0 150 72" version="1.1" xmlns="http://www.w3.org/2000/svg" xmlns:xlink="http://www.w3.org/1999/xlink">
    <title>编组 2备份</title>
    <defs>
        <ellipse id="path-1" cx="379" cy="251" rx="379" ry="251"></ellipse>
        <linearGradient x1="50%" y1="0%" x2="50%" y2="100%" id="linearGradient-3">
            <stop stop-color="#C1E9FD" offset="0%"></stop>
            <stop stop-color="#FFFFFF" offset="100%"></stop>
        </linearGradient>
        <polygon id="path-4" points="0.0433988764 0 0.799297753 0 0.799297753 66.626506 0.0433988764 66.626506"></polygon>
        <path d="M0,11.6761008 L2.12664716,14.3373494 C2.12664716,14.3373494 19.0706458,-1.11841267 34.5505618,0.930417376 L34.5505618,0.930417376 L34.5445981,0.796590219 C34.4622994,0.760265705 32.1030688,0 28.1455729,0 L28.1455729,0 C21.8717848,0 11.5868277,1.91372834 0,11.6761008" id="path-6"></path>
        <linearGradient x1="27.4051737%" y1="52.7982478%" x2="82.5609785%" y2="44.3290051%" id="linearGradient-8">
            <stop stop-color="#FFC82F" offset="0%"></stop>
            <stop stop-color="#BD2838" offset="100%"></stop>
        </linearGradient>
        <path d="M36.16677,0.00380898831 L36.1570599,0.00380898831 C35.1641942,2.82246033 31.3832938,2.36284241 26.240541,1.90132 L26.240541,1.90132 C23.4258033,1.65119643 20.2014175,1.39599421 16.810138,1.68547733 L16.810138,1.68547733 C7.8919468,2.44219634 0,9.15617306 0,9.15617306 L0,9.15617306 L2.16415582,11.8072289 C2.16415582,11.8072289 6.25881631,8.13980801 12.4308479,6.11342623 L12.4308479,6.11342623 C15.6946813,5.04183085 20.1115984,5.65190381 24.0818472,6.25816779 L24.0818472,6.25816779 C27.7468323,6.82189806 31.0264448,7.38435866 32.6468307,6.61938684 L32.6468307,6.61938684 C34.2301965,5.71475212 35.9543599,2.77294349 36.2359551,0.00761797661 L36.2359551,0.00761797661 L36.2359551,0 C36.2128934,0.00253932554 36.1892248,0.00380898831 36.16677,0.00380898831" id="path-9"></path>
        <path d="M0,3.26185476 C7.18097195,0.709074831 14.8981853,3.37349398 14.8981853,3.37349398 L14.8981853,3.37349398 L21.0674157,1.40322759 C17.972677,0.381894551 15.090226,0 12.5084138,0 L12.5084138,0 C5.55752255,0 0.804975666,2.77495302 0,3.26185476" id="path-11"></path>
        <path d="M17.1110855,0.0813275484 C9.04758143,0.690995766 1.81186374,5.57122546 0.292813983,6.65732315 L0.292813983,6.65732315 C0.195209322,6.72653808 0.0982224121,6.79575302 0,6.86900549 L0,6.86900549 L2.20228238,9.27710843 L2.20475339,9.27710843 C2.20598889,9.27653164 2.20660664,9.27653164 2.20722439,9.27595485 L2.20722439,9.27595485 C2.38390118,9.13406424 9.38981549,3.59456228 18.5393258,0 L18.5393258,0 L18.5393258,0 C18.0667463,0.0161501515 17.5904603,0.0444129165 17.1110855,0.0813275484" id="path-13"></path>
        <polygon id="path-15" points="0 0 10.7345368 0 10.7345368 10.8753763 0 10.8753763"></polygon>
        <polygon id="path-17" points="0 70 150 70 150 0 0 0"></polygon>
        <linearGradient x1="50%" y1="0%" x2="50%" y2="100%" id="linearGradient-19">
            <stop stop-color="#C8C8C8" offset="0%"></stop>
            <stop stop-color="#315898" offset="49.1094843%"></stop>
            <stop stop-color="#979797" offset="100%"></stop>
        </linearGradient>
    </defs>
    <g id="页面-1" stroke="none" stroke-width="1" fill="none" fill-rule="evenodd">
        <g id="登录页" transform="translate(-105.000000, -60.000000)">
            <rect id="矩形备份-6" fill="#F5F5F5" x="0" y="0" width="360" height="668"></rect>
            <rect id="矩形备份" fill="#FFFFFF" x="0" y="1" width="360" height="639"></rect>
            <ellipse id="椭圆形备份" fill="#F0F4F4" cx="187.5" cy="107" rx="305.5" ry="216"></ellipse>
            <g id="Artwork" transform="translate(-178.000000, -168.000000)">
                <mask id="mask-2" fill="white">
                    <use xlink:href="#path-1"></use>
                </mask>
                <use id="蒙版" fill="#D8D8D8" xlink:href="#path-1"></use>
                <g mask="url(#mask-2)" id="sky">
                    <g transform="translate(51.857351, 163.587065)">
                        <polygon fill="url(#linearGradient-3)" points="75.0276565 0 535.123726 0 535.123726 601.900498 75.0276565 601.900498"></polygon>
                    </g>
                </g>
            </g>
            <g id="编组-6" transform="translate(105.000000, 61.000000)">
                <g id="编组">
                    <g transform="translate(81.741573, 3.373494)">
                        <mask id="mask-5" fill="white">
                            <use xlink:href="#path-4"></use>
                        </mask>
                        <g id="Clip-2"></g>
                        <polygon id="Fill-1" mask="url(#mask-5)" points="0.0433988764 66.626506 0.799297753 66.626506 0.799297753 0 0.0433988764 0"></polygon>
                    </g>
                    <g transform="translate(102.808989, 11.807229)">
                        <mask id="mask-7" fill="white">
                            <use xlink:href="#path-6"></use>
                        </mask>
                        <g id="Clip-4"></g>
                        <path d="M0,11.6761008 L2.12664716,14.3373494 C2.12664716,14.3373494 19.0706458,-1.11841267 34.5505618,0.930417376 L34.5505618,0.930417376 L34.5445981,0.796590219 C34.4622994,0.760265705 32.1030688,0 28.1455729,0 L28.1455729,0 C21.8717848,0 11.5868277,1.91372834 0,11.6761008" id="Fill-3" fill="url(#linearGradient-8)" mask="url(#mask-7)"></path>
                    </g>
                    <g transform="translate(102.808989, 14.337349)">
                        <mask id="mask-10" fill="white">
                            <use xlink:href="#path-9"></use>
                        </mask>
                        <g id="Clip-6"></g>
                        <path d="M36.16677,0.00380898831 L36.1570599,0.00380898831 C35.1641942,2.82246033 31.3832938,2.36284241 26.240541,1.90132 L26.240541,1.90132 C23.4258033,1.65119643 20.2014175,1.39599421 16.810138,1.68547733 L16.810138,1.68547733 C7.8919468,2.44219634 0,9.15617306 0,9.15617306 L0,9.15617306 L2.16415582,11.8072289 C2.16415582,11.8072289 6.25881631,8.13980801 12.4308479,6.11342623 L12.4308479,6.11342623 C15.6946813,5.04183085 20.1115984,5.65190381 24.0818472,6.25816779 L24.0818472,6.25816779 C27.7468323,6.82189806 31.0264448,7.38435866 32.6468307,6.61938684 L32.6468307,6.61938684 C34.2301965,5.71475212 35.9543599,2.77294349 36.2359551,0.00761797661 L36.2359551,0.00761797661 L36.2359551,0 C36.2128934,0.00253932554 36.1892248,0.00380898831 36.16677,0.00380898831" id="Fill-5" mask="url(#mask-10)"></path>
                    </g>
                    <g transform="translate(106.179775, 21.927711)">
                        <mask id="mask-12" fill="white">
                            <use xlink:href="#path-11"></use>
                        </mask>
                        <g id="Clip-8"></g>
                        <path d="M0,3.26185476 C7.18097195,0.709074831 14.8981853,3.37349398 14.8981853,3.37349398 L14.8981853,3.37349398 L21.0674157,1.40322759 C17.972677,0.381894551 15.090226,0 12.5084138,0 L12.5084138,0 C5.55752255,0 0.804975666,2.77495302 0,3.26185476" id="Fill-7" mask="url(#mask-12)"></path>
                    </g>
                    <g transform="translate(106.179775, 3.373494)">
                        <path d="M6.06771658,25.3404087 C13.1055681,20.3898705 21.0674157,20.4599609 21.0674157,20.4599609 C13.2676941,23.7682048 10.3195614,29.0941135 10.3195614,29.0941135 L6.06954507,25.3385953" id="Fill-9" fill="#37AAD4"></path>
                        <path d="M20.5260003,7.23491841 C16.9488677,6.9647242 13.2461789,7.21557565 10.7283504,7.45433787 C3.93795434,11.8421226 0,17.4497102 0,17.4497102 C10.5753669,8.89960488 20.5260003,7.23491841 20.5260003,7.23491841" id="Fill-11" fill="#315898"></path>
                        <path d="M18.1499407,3.86492567 C18.1499407,3.86492567 15.3029844,3.11539363 11.930033,3.2393082 C9.41829952,5.50664261 7.61175306,7.82112499 7.61175306,7.82112499 C7.61175306,7.82112499 8.83623074,7.63253306 10.7287161,7.45361251 C13.2465446,7.21666368 16.9486239,6.96399884 20.526366,7.23419305 L18.1499407,3.86492567 Z" id="Fill-13" fill="#BE2938"></path>
                        <path d="M5.23740003,4.44399961 L7.61199686,7.82052053 C7.61199686,7.82052053 9.41854332,5.50664261 11.9296673,3.2393082 C13.2760442,2.02313203 14.8247738,0.822067392 16.4064162,0 C16.4064162,0 9.20278169,1.23189217 5.23740003,4.44399961" id="Fill-15" fill="#315898"></path>
                        <path d="M17.4517629,36.2395716 C8.52203549,32.0313119 6.06820417,25.3393207 6.06820417,25.3393207 C10.788142,29.0833541 20.888102,32.5577977 20.888102,32.5577977 C20.888102,32.5577977 18.2623928,36.6228001 17.4517629,36.2395716" id="Fill-17" fill="#315898"></path>
                    </g>
                    <g transform="translate(102.808989, 16.024096)">
                        <mask id="mask-14" fill="white">
                            <use xlink:href="#path-13"></use>
                        </mask>
                        <g id="Clip-20"></g>
                        <path d="M17.1110855,0.0813275484 C9.04758143,0.690995766 1.81186374,5.57122546 0.292813983,6.65732315 L0.292813983,6.65732315 C0.195209322,6.72653808 0.0982224121,6.79575302 0,6.86900549 L0,6.86900549 L2.20228238,9.27710843 L2.20475339,9.27710843 C2.20598889,9.27653164 2.20660664,9.27653164 2.20722439,9.27595485 L2.20722439,9.27595485 C2.38390118,9.13406424 9.38981549,3.59456228 18.5393258,0 L18.5393258,0 L18.5393258,0 C18.0667463,0.0161501515 17.5904603,0.0444129165 17.1110855,0.0813275484" id="Fill-19" mask="url(#mask-14)"></path>
                    </g>
                    <g>
                        <path d="M132.42843,54.1381751 C129.604258,54.1381751 127.283706,56.3450493 127.074576,59.1505222 C127.370284,59.1767873 127.667822,59.2232092 127.949508,59.3001719 C128.089131,56.9222694 130.03959,55.0330189 132.42843,55.0330189 C134.912995,55.0330189 136.923815,57.0676434 136.923815,59.5732062 C136.923815,62.081823 134.912995,64.1121718 132.42843,64.1121718 C132.269296,64.1121718 132.110772,64.104842 131.950418,64.0871284 C131.638857,64.0535336 131.328515,63.9845115 131.038903,63.8886135 C129.447563,63.3627019 128.242168,61.9645466 127.98731,60.2463242 C127.697698,60.1540912 127.391624,60.0856799 127.076405,60.0502526 C127.27395,62.368906 128.906751,64.2691512 131.077925,64.8329334 C131.36022,64.9117285 131.655929,64.9605937 131.958345,64.9899128 C132.112601,65.0015183 132.269296,65.0094589 132.42843,65.0094589 C135.399542,65.0094589 137.806064,62.5784155 137.806064,59.5732062 C137.806064,56.5728833 135.399542,54.1381751 132.42843,54.1381751" id="Fill-21" fill="#E93753"></path>
                        <g transform="translate(121.230332, 59.124624)">
                            <mask id="mask-16" fill="white">
                                <use xlink:href="#path-15"></use>
                            </mask>
                            <g id="Clip-24"></g>
                            <path d="M9.85838492,5.71356271 C9.71876156,8.09146517 7.7652539,9.97399674 5.37580431,9.97399674 C2.89672749,9.97399674 0.887736313,7.94548041 0.887736313,5.43686355 C0.887736313,2.92763588 2.89672749,0.897287109 5.37580431,0.897287109 C5.54103545,0.897287109 5.70199863,0.908892593 5.85686471,0.92477378 C6.17208427,0.958368601 6.47571936,1.02861232 6.77325735,1.12084537 C8.36276873,1.64920027 9.56633431,3.04735561 9.81570529,4.7631347 C10.1089753,4.85781101 10.4126104,4.92805473 10.7320979,4.96531444 C10.530894,2.64666102 8.89992236,0.743972566 6.72630976,0.172860621 C6.44645332,0.103838535 6.15074445,0.0494760081 5.85198704,0.0250434115 C5.6934627,0.0122162983 5.53676749,0 5.37580431,0 C2.40286319,0 0,2.43837314 0,5.43686355 C0,8.43840804 2.40286319,10.8755596 5.37580431,10.8755596 C8.20607351,10.8755596 10.5229677,8.66868526 10.7345368,5.86504481 C10.4382182,5.83694732 10.1449482,5.78624968 9.85838492,5.71356271" id="Fill-23" fill="#00A253" mask="url(#mask-16)"></path>
                        </g>
                        <path d="M126.152696,59.1487509 C125.938688,56.3451104 123.620574,54.1382361 120.790915,54.1382361 C117.823461,54.1382361 115.414501,56.5723336 115.414501,59.5732672 C115.414501,62.5790874 117.823461,65.00952 120.790915,65.00952 C120.945171,65.00952 121.096379,65.0015794 121.247587,64.9899739 C121.235392,64.8482648 121.229905,64.7035017 121.229905,64.5642359 C121.229905,64.4029808 121.237222,64.2460013 121.253074,64.0908544 C121.098208,64.1042923 120.947,64.1122329 120.790915,64.1122329 C118.317325,64.1122329 116.304066,62.0818841 116.304066,59.5732672 C116.304066,57.0670937 118.317325,55.03308 120.790915,55.03308 C123.177925,55.03308 125.131433,56.9162224 125.272885,59.293514 C125.278373,59.3863579 125.282641,59.4767585 125.282641,59.5732672 C125.282641,59.8004904 125.26313,60.0222162 125.233254,60.2360014 C124.983274,61.9682725 123.769953,63.3755901 122.166418,63.8923395 C122.135323,64.1122329 122.117641,64.3339587 122.117641,64.5642359 C122.117641,64.6558582 122.117641,64.7462588 122.126787,64.8446 C124.304668,64.2808178 125.949053,62.372632 126.147208,60.0503137 C126.163061,59.8890586 126.172206,59.7339116 126.172206,59.5732672 C126.172206,59.4291149 126.16489,59.2916816 126.152696,59.1487509" id="Fill-25" fill="#000000"></path>
                        <path d="M115.421451,59.1505222 C115.724477,59.1761765 116.017137,59.230539 116.30309,59.3136098" id="Fill-27" fill="#090506"></path>
                        <path d="M119.402424,64.8285966 C119.266459,67.2181046 117.312951,69.0994145 114.923502,69.0994145 C112.436499,69.0994145 110.429946,67.0690657 110.429946,64.5635029 C110.429946,62.0524428 112.436499,60.022094 114.923502,60.022094 C115.090562,60.022094 115.261281,60.0336995 115.427121,60.0556889 C115.74478,60.0892837 116.050854,60.1595274 116.341075,60.2578686 C117.915954,60.788056 119.106715,62.1801031 119.361574,63.880001 C119.653015,63.9783422 119.958479,64.048586 120.272479,64.0840132 C120.074324,61.7769653 118.455546,59.8883256 116.301444,59.309273 C116.015491,59.2323104 115.725269,59.1779478 115.425902,59.1504612 C115.258842,59.13458 115.090562,59.1272502 114.923502,59.1272502 C111.948122,59.1272502 109.544039,61.5613476 109.544039,64.5635029 C109.544039,67.5638258 111.948122,69.9979232 114.923502,69.9979232 C117.748284,69.9979232 120.064568,67.7873841 120.278576,64.9892409 C119.97799,64.9623651 119.68411,64.9067809 119.402424,64.8285966" id="Fill-29" fill="#F7AE42"></path>
                        <path d="M114.464025,59.1487509 C114.248188,56.3451104 111.931904,54.1382361 109.104073,54.1382361 C106.1354,54.1382361 103.72644,56.5723336 103.72644,59.5732672 C103.72644,62.5790874 106.1354,65.00952 109.104073,65.00952 C109.256501,65.00952 109.407708,65.0015794 109.558916,64.9899739 C109.548551,64.8482648 109.543064,64.7035017 109.543064,64.5642359 C109.543064,64.4029808 109.548551,64.2460013 109.560745,64.0908544 C109.411976,64.1042923 109.261378,64.1122329 109.104073,64.1122329 C106.625606,64.1122329 104.614176,62.0818841 104.614176,59.5732672 C104.614176,57.0670937 106.625606,55.03308 109.104073,55.03308 C111.492913,55.03308 113.445201,56.9162224 113.586044,59.293514 C113.592141,59.3863579 113.598238,59.4767585 113.598238,59.5732672 C113.598238,59.8004904 113.578728,60.0222162 113.544584,60.2360014 C113.296432,61.9682725 112.083111,63.3755901 110.477748,63.8923395 C110.448482,64.1122329 110.428971,64.3339587 110.428971,64.5642359 C110.428971,64.6558582 110.4308,64.7462588 110.438117,64.8446 C112.615997,64.2808178 114.260992,62.372632 114.458538,60.0503137 C114.47378,59.8890586 114.479878,59.7339116 114.479878,59.5732672 C114.479878,59.4291149 114.47378,59.2916816 114.464025,59.1487509" id="Fill-31" fill="#0680C4"></path>
                        <path d="M104.022149,47.4949521 L103.692296,46.5268104 C103.692296,46.5268104 102.760051,46.4034258 101.617456,46.5329186 C101.724765,46.2207921 101.856462,45.8665195 102.016816,45.4273436 C102.639938,45.3271699 103.491092,45.2489856 104.492234,45.2880778 L104.18799,44.280844 C103.185018,44.1922758 101.979624,44.231368 101.388206,44.2771791 L101.388206,44.2826764 C101.31565,44.2881738 101.269922,44.2967252 101.266264,44.3022225 C100.451693,46.1658188 99.9139294,47.9194684 99.6279759,48.9792323 L100.329141,50.0139528 L100.780326,50.0139528 C100.780326,50.0102879 100.780326,50.0102879 100.782155,50.0102879 C102.136319,49.9962391 102.261919,49.9608119 103.859356,49.8410921 L103.512432,48.7672795 C102.403371,48.9480807 101.591849,48.9609078 100.997382,48.9126535 C101.091887,48.4411044 101.172369,48.0721721 101.25468,47.7423321 C101.822928,47.6323854 102.714933,47.5163306 104.022149,47.4949521" id="Fill-33" fill="#000000"></path>
                        <path d="M95.4820766,48.6980742 C95.6979136,47.7836843 96.0576419,46.4227886 96.5777237,44.8951405 C97.2929123,44.8713187 97.9178641,44.9501139 98.3842915,45.0399037 C97.6026445,45.764941 96.4405391,45.9866668 96.4405391,45.9866668 L96.7716111,46.9700788 C96.7716111,46.9700788 97.9294485,46.9664139 98.6903654,47.487439 C97.8965243,48.5331542 96.4990712,48.7121229 95.4820766,48.6980742 M98.4452624,46.3519341 C98.7903577,46.1124947 99.1000898,45.7686059 99.2488588,45.2604078 L98.9348587,44.2702769 C98.9330296,44.2806607 98.9269325,44.2843256 98.9251033,44.2947095 L98.919616,44.2702769 C96.4655372,43.4401794 94.2431479,44.0021291 93.5889301,44.2061413 L94.3376528,45.309273 C94.6644568,45.1913858 94.9918705,45.1034284 95.3095289,45.0399037 C94.2553421,47.708554 93.8084254,49.8781686 93.8084254,49.8781686 C98.7464586,50.6166438 99.3878725,47.8068952 99.3878725,47.8068952 L99.0568005,46.8253157 C99.0568005,46.8253157 98.9135189,46.5773248 98.4452624,46.3519341" id="Fill-35" fill="#000000"></path>
                        <path d="M107.28147,44.2798056 L106.123023,44.2798056 C104.774956,47.3289936 104.212195,50.0129144 104.212195,50.0129144 L105.624891,50.0129144 C105.624891,50.0129144 106.132778,47.3619776 107.28147,44.2798056" id="Fill-37" fill="#000000"></path>
                        <path d="M111.086237,44.2798056 C109.737561,47.3289936 109.175409,50.0129144 109.175409,50.0129144 L110.586886,50.0129144 C110.586886,50.0129144 111.099651,47.3619776 112.242246,44.2798056 L111.086237,44.2798056 Z" id="Fill-39" fill="#000000"></path>
                        <path d="M116.762933,44.2798056 C116.180661,45.5912252 115.745329,46.8342336 115.439864,47.8280294 C115.099037,46.7694872 114.761868,45.4776136 114.679557,44.2798056 L113.524768,44.2798056 C112.171214,47.3289936 111.610282,50.0129144 111.610282,50.0129144 L113.023588,50.0129144 C113.023588,50.0129144 113.292469,48.6172023 113.872303,46.6772541 C114.083262,47.7315207 114.393604,48.9665884 114.847837,50.0129144 L116.263581,50.0129144 C116.263581,50.0129144 116.772688,47.3619776 117.917722,44.2798056 L116.762933,44.2798056 Z" id="Fill-41" fill="#000000"></path>
                        <path d="M146.769701,48.4225356 C145.952081,48.1024686 144.968011,48.0847549 144.035766,48.1940908 C144.664985,47.4623345 145.305789,46.5925341 145.813067,45.6262249 L145.40944,44.4210871 C144.42354,44.187145 142.753547,44.2402859 141.439015,44.9763178 L141.840203,46.1759583 C141.840203,46.1759583 142.891342,45.5755273 144.461342,45.5284945 C144.060764,46.2058883 143.190709,47.276036 141.301221,48.6558669 L140.861011,48.236237 C140.184234,47.988857 139.469045,47.9241106 138.78861,47.9564838 C139.41783,47.2009058 140.071438,46.2822401 140.584203,45.2536278 L140.179966,44.0515441 C139.190408,43.8420345 137.574069,43.8731861 136.276609,44.639148 L136.707673,45.8565021 C136.707673,45.8565021 137.940505,45.0496156 139.357468,45.0373993 C138.961157,45.7813719 137.994769,47.0512561 135.64556,48.7383269 C135.62422,48.7505432 135.610197,48.7560405 135.610197,48.7560405 L136.599754,50.1719095 C136.599754,50.1719095 138.43193,49.0388478 140.709803,49.0706102 C140.69395,49.0742751 140.686024,49.07794 140.686024,49.07794 L141.646926,50.513355 C141.646926,50.513355 145.038737,48.4830063 148.378723,49.6240085 L146.769701,48.4225356 Z" id="Fill-43" fill="#000000"></path>
                        <path d="M134.022941,48.3285922 C133.568098,48.8703851 132.909613,49.2826851 132.382824,49.5557194 C131.986513,48.7482221 131.647515,47.4429106 132.686459,46.2255565 C133.156545,45.6800988 133.832712,45.2769609 134.363769,45.0143105 C134.714351,45.8230295 135.016157,47.1466654 134.022941,48.3285922 M135.17895,44.6472108 C135.180779,44.6551514 133.938192,44.2526243 133.938192,44.2526243 C133.938192,44.2526243 132.572444,44.609951 131.542035,45.8505161 C130.579305,47.009232 130.56955,48.0244064 130.804287,48.7500545 L130.552478,48.4996204 C129.871433,48.2424673 129.152586,48.1697804 128.469102,48.1948238 C129.117223,47.4337484 129.795219,46.5071422 130.326885,45.4736433 L129.924477,44.2685055 C128.881875,44.0443364 127.246026,44.1445101 125.933932,44.8964232 L126.344266,46.1003394 C126.742406,45.8291376 127.988651,45.4162267 129.058081,45.3307126 C128.634943,46.0783501 127.643556,47.3134179 125.323004,48.9351315 C125.303493,48.943072 125.291299,48.9485694 125.291299,48.9485694 L126.163792,50.2312807 L126.261955,50.3766547 L126.263785,50.3766547 C126.263785,50.3766547 128.513611,49.0255321 131.108532,49.3907994 C131.32193,49.7359098 131.537767,49.9289273 131.540206,49.9307598 L132.878518,50.3375625 C132.878518,50.3375625 134.383279,50.0840743 135.277722,48.7372274 C137.017222,46.1095017 135.17895,44.6472108 135.17895,44.6472108" id="Fill-45" fill="#000000"></path>
                        <path d="M108.304989,44.2798056 C108.304989,44.2798056 107.587971,46.9282991 106.637435,49.875481 C106.31185,50.8827148 105.836277,51.4898648 105.280832,51.7054825 C104.940005,51.8349753 104.681488,51.7775587 104.422971,51.7470179 L104.422971,51.7488504 L105.857617,52.3040811 C107.334942,52.0725823 107.768445,50.9224178 108.080006,50.0990393 C108.42815,49.179152 109.723781,44.2798056 109.723781,44.2798056 L108.304989,44.2798056 Z" id="Fill-47" fill="#000000"></path>
                        <path d="M122.841549,45.3964974 L122.445848,44.1986894 C118.835151,44.173646 117.205399,46.4959643 117.312708,48.5085994 C117.322463,48.6991737 117.346242,48.8714235 117.389531,49.0308462 L117.940098,49.8395651 C118.533955,50.212773 119.510099,50.0496854 120.742321,49.3099886 C120.426491,49.8731599 119.977746,50.377693 119.36072,50.513294 C119.398522,50.5108507 120.352717,51.0062216 120.569773,50.9060479 C121.210577,50.605527 122.410485,49.694802 122.639735,47.876406 L122.637906,47.876406 L121.345933,47.387754 C121.348371,47.387754 121.350201,47.3932514 121.35203,47.3950838 L121.348371,47.3950838 C120.538678,48.6661896 118.859539,49.1530091 118.326654,48.8640937 C117.493181,48.4163663 119.160736,45.2468478 122.841549,45.3964974" id="Fill-49" fill="#000000"></path>
                        <polygon id="Fill-51" fill="#000000" points="148.436828 44.5631626 148.128315 44.5631626 148.128315 44.4526051 148.877648 44.4526051 148.877648 44.5631626 148.567915 44.5631626 148.567915 45.4665579 148.436828 45.4665579"></polygon>
                        <path d="M149.845012,45.020663 C149.839525,44.8807864 149.829769,44.7085366 149.829769,44.5827087 L149.825501,44.5827087 C149.791967,44.6987635 149.747459,44.8300887 149.698682,44.9693545 L149.519427,45.4604497 L149.419435,45.4604497 L149.252985,44.9772951 C149.206647,44.8319212 149.167625,44.7024284 149.13775,44.5827087 L149.13592,44.5827087 C149.131652,44.7085366 149.123117,44.8795648 149.11641,45.0328793 L149.088973,45.4665579 L148.965202,45.4665579 L149.034099,44.4532159 L149.203598,44.4532159 L149.374926,44.9443111 C149.415777,45.0658633 149.45114,45.1813073 149.477967,45.2857567 L149.479796,45.2857567 C149.506014,45.1813073 149.545645,45.0719714 149.590154,44.9443111 L149.770627,44.4532159 L149.935249,44.4532159 L149.999878,45.4665579 L149.87062,45.4665579 L149.845012,45.020663 Z" id="Fill-53" fill="#000000"></path>
                        <path d="M25.3515176,40.4726573 C25.0478825,40.7988325 24.6619367,40.9674174 24.147952,40.9674174 C23.6918897,40.9674174 23.303505,40.7847837 23.0016991,40.4567761 C22.7017222,40.1293793 22.5645377,39.7103603 22.5645377,39.1807838 C22.5645377,38.6957967 22.7017222,38.2731128 23.0096253,37.9481593 C23.3108215,37.6103786 23.7046935,37.4393504 24.1680724,37.4393504 C24.6619367,37.4393504 25.0478825,37.6103786 25.3515176,37.9481593 C25.6612497,38.2639506 25.8161158,38.6957967 25.8161158,39.2027731 C25.8161158,39.7189117 25.6612497,40.1330442 25.3515176,40.4726573 L25.3515176,40.4726573 Z M25.7313663,36.4443329 L25.7313663,37.0875211 C25.1966515,36.5536688 24.5906007,36.3001806 23.9187014,36.3001806 C23.1413224,36.3001806 22.4785687,36.5750473 21.9725103,37.1156185 C21.4530382,37.6671844 21.1847662,38.3561836 21.1847662,39.1807838 C21.1847662,40.0230975 21.4530382,40.7279779 21.9725103,41.2777114 C22.4938115,41.8408827 23.1504681,42.1084196 23.9595519,42.1084196 C24.5906007,42.1084196 25.1826282,41.8689802 25.7313663,41.3638363 L25.7313663,41.9551051 L27.0837009,41.9551051 L27.0837009,36.4443329 L25.7313663,36.4443329 Z" id="Fill-55" fill="#000000"></path>
                        <path d="M7.19243229,33.9496427 L8.60329893,33.9496427 L8.60329893,37.0733501 C8.60329893,37.0733501 9.1087477,36.3550318 10.1989074,36.3550318 C11.1957816,36.3550318 12.1237587,37.024485 12.1237587,38.7133882 L12.1237587,41.9818588 L10.8317853,41.9818588 L10.8317853,38.6101605 C10.8317853,38.0317187 10.6086319,37.3134004 9.79101208,37.3134004 C8.99595153,37.3134004 8.60329893,37.8979503 8.60329893,38.6101605 L8.60329893,41.9818588 L7.19243229,41.9818588 L7.19243229,33.9496427 Z" id="Fill-57" fill="#000000"></path>
                        <path d="M6.6851544,40.6137556 C6.37725135,41.0382719 5.99740264,41.4047609 5.51695194,41.6796276 C4.95662937,41.9941973 4.3292388,42.1548416 3.645755,42.1548416 C2.6501002,42.1548416 1.7837037,41.7852986 1.07034416,41.0944669 C0.35881375,40.3743161 0.000304854503,39.5283374 0.000304854503,38.4972819 C0.000304854503,37.4289666 0.396006,36.510301 1.21118694,35.7895394 C1.91722997,35.1591784 2.7183876,34.8317816 3.64148704,34.8317816 C4.29387568,34.8317816 4.92919246,35.0144152 5.51085485,35.3283741 C5.98337933,35.6050733 6.37725135,35.9501837 6.6851544,36.3887488 L5.49134416,37.2499978 C5.41513054,37.0441532 5.29318874,36.8639628 5.14685858,36.6929346 C4.74445063,36.242764 4.25058634,36.0039354 3.62380548,36.0039354 C3.0226324,36.0039354 2.52023218,36.242764 2.11904365,36.7069834 C1.71114833,37.1718135 1.51482203,37.7801852 1.51482203,38.4972819 C1.51482203,39.2473626 1.71114833,39.8563451 2.11904365,40.3315591 C2.50498945,40.7847837 3.00677996,41.0101744 3.62380548,41.0101744 C4.22375914,41.0101744 4.73347587,40.7847837 5.14685858,40.3132346 C5.2773363,40.1330442 5.40720432,39.9497997 5.49134416,39.7512849 C5.49134416,39.7512849 6.37725135,40.3938622 6.6851544,40.6137556" id="Fill-59" fill="#000000"></path>
                        <path d="M18.616489,36.355948 C17.2854942,36.3266289 16.8629659,37.0742664 16.8629659,37.0742664 L16.793459,36.4268026 L15.6063556,36.4268026 L15.6063556,41.9748344 L16.9836883,41.9748344 L16.9836883,38.6080226 C16.9836883,37.8988665 17.4129234,37.3021003 18.1872538,37.3021003 C19.0085319,37.3021003 19.2579028,38.032635 19.2579028,38.6080226 L19.2579028,41.9748344 L20.5309752,41.9748344 L20.5309752,38.712472 C20.5309752,37.0113524 19.6164117,36.355948 18.616489,36.355948" id="Fill-61" fill="#000000"></path>
                        <mask id="mask-18" fill="white">
                            <use xlink:href="#path-17"></use>
                        </mask>
                        <g id="Clip-64"></g>
                        <polygon id="Fill-63" fill="#E60027" mask="url(#mask-18)" points="13.1617883 41.9752009 14.4629073 41.9752009 14.4629073 36.4045689 13.1617883 36.4045689"></polygon>
                        <path d="M13.7953369,35.8498268 C13.3465911,35.8498268 13.0502725,35.5022731 13.0502725,35.1076867 C13.0502725,34.6837811 13.3715892,34.3594384 13.8191156,34.3594384 C14.2873721,34.3594384 14.5757645,34.6837811 14.5757645,35.1076867 C14.5757645,35.5022731 14.2873721,35.8498268 13.8191156,35.8498268 L13.7953369,35.8498268 Z" id="Fill-65" fill="#E60027" mask="url(#mask-18)"></path>
                        <path d="M13.7953369,44.0385337 C13.3465911,44.0385337 13.0502725,43.700753 13.0502725,43.3159397 C13.0502725,42.8779854 13.3715892,42.5463129 13.8191156,42.5463129 C14.2873721,42.5463129 14.5757645,42.8779854 14.5757645,43.3159397 C14.5757645,43.700753 14.2873721,44.0385337 13.8191156,44.0385337 L13.7953369,44.0385337 Z" id="Fill-66" fill="#E60027" mask="url(#mask-18)"></path>
                        <path d="M33.5296054,44.5631626 C32.7064983,44.5436165 32.1284941,44.9027757 31.6498726,45.4311306 C31.3285559,44.8459699 30.7859149,44.5906493 30.2079108,44.5631626 C29.0238559,44.5362868 28.5318207,45.2796485 28.5318207,45.2796485 L28.4769469,44.6199684 L27.2252143,44.6199684 L27.2252143,50.1551732 L28.6263256,50.1551732 L28.6263256,46.8189021 C28.6263256,46.0969189 29.0043452,45.5215312 29.731728,45.5215312 C30.4743536,45.5215312 30.6938488,46.2398496 30.6938488,46.8189021 L30.6938488,50.1551732 L31.967531,50.1551732 L31.967531,46.8879242 L31.967531,46.9019729 C31.9827737,45.9594855 32.4065214,45.5215312 33.0534227,45.5215312 C33.7984871,45.5215312 34.0216406,46.2398496 34.0216406,46.8189021 L34.0216406,50.1551732 L35.2953227,50.1551732 L35.2953227,46.9111352 C35.2953227,45.235059 34.4527049,44.5906493 33.5296054,44.5631626" id="Fill-67" fill="#000000" mask="url(#mask-18)"></path>
                        <polygon id="Fill-68" fill="#E60027" mask="url(#mask-18)" points="13.1617883 50.1540126 14.4629073 50.1540126 14.4629073 44.6188079 13.1617883 44.6188079"></polygon>
                        <path d="M23.768652,45.4581897 C23.3235644,45.4581897 22.9650555,45.6328828 22.6748341,46.0024258 C22.3675407,46.3670823 22.2266979,46.8343557 22.2266979,47.3804243 C22.2266979,47.9692498 22.3675407,48.4401881 22.6638593,48.8054554 C22.9595682,49.1554524 23.31198,49.3277022 23.768652,49.3277022 C24.2137396,49.3277022 24.5923689,49.1554524 24.8740544,48.7956824 C25.1837866,48.4267502 25.3386527,47.9637525 25.3386527,47.3804243 C25.3386527,46.8190853 25.1837866,46.3670823 24.8953943,45.9865446 C24.5978563,45.6328828 24.2234949,45.4581897 23.768652,45.4581897 M23.6704889,44.4918805 C24.196058,44.4918805 24.6704116,44.6195408 25.1270837,44.8852453 C25.5935111,45.1362903 25.9575073,45.5070549 26.1946842,45.929128 C26.4495425,46.3866284 26.5885562,46.8758911 26.5885562,47.3743161 C26.5885562,47.9063359 26.4495425,48.3833823 26.1946842,48.8347746 C25.9416549,49.2831127 25.5935111,49.6563206 25.1465944,49.8933168 C24.7057748,50.1541348 24.2137396,50.2738545 23.676586,50.2738545 C22.8809157,50.2738545 22.2126746,50.0075392 21.6584491,49.4419246 C21.0877615,48.87631 20.8213187,48.1952514 20.8213187,47.3804243 C20.8213187,46.5295591 21.1365382,45.8173489 21.7675871,45.2541775 C22.3266902,44.7453687 22.9595682,44.4918805 23.6704889,44.4918805" id="Fill-69" fill="#000000" mask="url(#mask-18)"></path>
                        <path d="M10.1993342,44.5351262 C8.88236274,44.5210775 8.43971401,45.2674933 8.43971401,45.2674933 L8.3781334,44.6194187 L7.18310374,44.6194187 L7.18310374,50.1546234 L8.56470435,50.1546234 L8.56470435,46.8067469 C8.56470435,46.0725474 8.98174531,45.5069327 9.75424662,45.5069327 C10.5877188,45.5069327 10.8181888,46.2197538 10.8181888,46.8067469 L10.8181888,50.1546234 L12.1217467,50.1546234 L12.1217467,46.9014232 C12.1217467,45.2100767 11.1968181,44.5626129 10.1993342,44.5351262" id="Fill-70" fill="#000000" mask="url(#mask-18)"></path>
                        <path d="M3.04116755,50.2293261 C4.36362639,50.2507046 4.79895862,49.5128402 4.79895862,49.5128402 L4.87334312,50.1541959 L6.06898248,50.1541959 L6.06898248,44.6196019 L4.6757974,44.6196019 L4.6757974,47.9809164 C4.6757974,48.6955698 4.27399916,49.2831738 3.47954833,49.2831738 C2.65644117,49.2831738 2.33939249,48.5526392 2.33939249,47.9809164 L2.33939249,44.6196019 L0.93828119,44.6196019 L0.93828119,47.8691373 C0.93828119,49.569646 2.04124478,50.2195531 3.04116755,50.2293261" id="Fill-71" fill="#000000" mask="url(#mask-18)"></path>
                        <path d="M20.720107,49.0750692 C20.4829302,49.428731 20.173198,49.7029869 19.7927396,49.9112748 C19.3421646,50.1727036 18.834277,50.2997531 18.3013914,50.2997531 C17.5118182,50.2997531 16.8240664,50.0053403 16.261305,49.4556068 C15.6833009,48.8924355 15.4010056,48.2144309 15.4010056,47.4099877 C15.4010056,46.5517927 15.7326873,45.8273663 16.3637361,45.2544219 C16.9222296,44.7614942 17.5691308,44.5061736 18.3013914,44.5061736 C18.8056207,44.5061736 19.3122889,44.6356664 19.7774969,44.9025925 C20.1597844,45.1090479 20.4670777,45.3912444 20.7079128,45.7253602 L19.6793337,46.4736084 C19.6165337,46.3105209 19.5262967,46.184693 19.4263045,46.0710814 C19.1446189,45.7253602 18.7794032,45.5488347 18.3135855,45.5488347 C17.8861795,45.5488347 17.5258415,45.7253602 17.2392783,46.0710814 C16.9356432,46.4180243 16.7948004,46.8620867 16.7948004,47.4099877 C16.7948004,47.9639968 16.9356432,48.4111133 17.2392783,48.7647752 C17.5258415,49.1037775 17.8861795,49.2656434 18.3135855,49.2656434 C18.7641605,49.2656434 19.1226694,49.1037775 19.410452,48.7513372 C19.5262967,48.6255094 19.6165337,48.4819679 19.6793337,48.3286533 L20.720107,49.0750692 Z" id="Fill-72" fill="#000000" mask="url(#mask-18)"></path>
                        <path d="M61.7385243,44.7454298 C61.2483182,44.0545981 60.7038481,43.6850551 60.7038481,43.6850551 L60.1752304,44.0600955 L61.0647958,45.2542386 L61.7385243,44.7454298 Z M65.0041257,46.2394831 L66.0583126,46.2394831 L66.0583126,45.7899233 L65.0041257,45.7899233 L65.0041257,46.2394831 Z M65.0041257,47.3273444 L66.0583126,47.3273444 L66.0583126,46.8759522 L65.0041257,46.8759522 L65.0041257,47.3273444 Z M63.0609831,46.2394831 L64.1017564,46.2394831 L64.1017564,45.7899233 L63.0609831,45.7899233 L63.0609831,46.2394831 Z M63.0609831,47.3273444 L64.1017564,47.3273444 L64.1017564,46.8759522 L63.0609831,46.8759522 L63.0609831,47.3273444 Z M64.4139274,44.866982 C63.9883505,44.5805098 63.5030221,44.3667245 63.5030221,44.3667245 L63.1536589,44.8162843 L63.5030221,45.1259675 L62.1543458,45.1259675 L62.1543458,49.1158105 L62.4287149,49.1158105 C62.7244237,49.1158105 63.0609831,48.9234038 63.0609831,48.5214876 L63.0609831,47.9693109 L64.1017564,47.9693109 L64.1017564,49.1158105 L64.3925876,49.1158105 C64.7370732,49.1158105 64.9882733,48.932566 65.003516,48.5111037 L65.003516,47.9693109 L66.0583126,47.9693109 L66.0583126,48.2380695 C66.0583126,48.3559568 65.9052756,48.4402492 65.7900406,48.4402492 L65.3821453,48.4402492 L65.5601803,49.1158105 L66.2125689,49.1158105 C66.6576565,49.1158105 67.0161654,48.7645919 67.0161654,48.3125889 L67.0161654,45.6757009 C67.0161654,45.3757908 66.7613071,45.1259675 66.4674273,45.1259675 L65.4132404,45.1259675 L66.8070352,44.2934268 L66.8070352,43.5341838 L62.1055691,43.5341838 L62.1055691,44.1877558 L65.5388405,44.1877558 L64.4139274,44.866982 Z M62.0482564,49.4285477 C61.8092505,49.4285477 61.6117048,49.2294221 61.6117048,48.9899826 L61.6117048,45.5486514 L60.1118206,45.5486514 L60.1118206,46.219937 L60.611782,46.219937 L60.611782,49.2575196 C60.611782,49.7754906 61.0647958,50.0900603 61.4153785,50.0900603 L67.1143286,50.0900603 L67.1143286,49.4285477 L62.0482564,49.4285477 Z" id="Fill-73" fill="#000000" mask="url(#mask-18)"></path>
                        <path d="M58.1117922,47.2340119 L59.2757267,47.2340119 L59.2757267,46.5645588 L57.9807047,46.5645588 L57.9807047,45.5493844 L59.2757267,45.5493844 L59.2757267,44.8860394 L58.4294506,44.8860394 L59.193416,43.92706 L58.4666428,43.4072565 L57.527691,44.8860394 L56.8417683,44.8860394 L57.4027006,44.4792367 C56.9265179,43.8158917 56.5167934,43.4072565 56.5167934,43.4072565 L55.9912243,43.7309884 L56.6698304,44.8860394 L55.8266028,44.8860394 L55.8266028,45.5493844 L56.9381023,45.5493844 L56.9381023,46.5645588 L55.8266028,46.5645588 L55.8266028,47.2340119 L56.8106732,47.2340119 L55.6558843,50.2178428 L56.1497486,50.2178428 C56.4186303,50.2178428 56.6850731,50.0352091 56.7893333,49.7939372 L57.5008638,48.0176875 L58.4721302,50.2178428 L59.4507132,50.2178428 L58.1117922,47.2340119 Z M53.6578679,46.7270355 L54.47061,46.7270355 L54.47061,45.9158733 L53.6578679,45.9158733 L53.6578679,46.7270355 Z M54.47061,48.2033752 L53.6572582,48.4281551 L53.6572582,47.3989319 L54.47061,47.3989319 L54.47061,48.2033752 Z M55.8625757,47.8191726 L55.4150492,47.9450005 L55.4150492,44.223916 C55.4150492,43.8036754 55.1644588,43.5465223 54.8468005,43.5465223 L52.4908849,43.5465223 L52.4908849,44.223916 L54.47061,44.223916 L54.47061,45.2549716 L53.6572582,45.2549716 L53.6572582,44.5641399 L52.7689122,44.5641399 L52.7689122,48.688973 L52.3799178,48.8068603 L52.3799178,49.5410599 L54.47061,48.9479586 L54.47061,50.3009136 L54.8468005,50.3009136 C55.1370219,50.3009136 55.3351774,50.1158367 55.4150492,49.7566775 L55.4150492,48.688973 L55.8625757,48.5625344 L55.8625757,47.8191726 Z" id="Fill-74" fill="#000000" mask="url(#mask-18)"></path>
                        <path d="M42.3355716,47.2918561 C42.3355716,47.5312955 42.1435133,47.7218698 41.9045074,47.7218698 L40.5820485,47.7218698 L40.5820485,45.0122948 L42.3355716,45.0122948 L42.3355716,47.2918561 Z M42.7513932,44.3367335 L40.5820485,44.3367335 L40.5820485,43.4064624 L39.4406733,43.4064624 L39.4406733,44.3367335 L38.0218804,44.3367335 L38.0218804,45.0122948 L39.4406733,45.0122948 L39.4406733,47.7218698 L37.6834919,47.7218698 L37.6834919,44.3367335 L36.5445555,44.3367335 L36.5445555,48.3791066 L39.4406733,48.3791066 L39.4406733,50.3001195 L39.619318,50.3001195 C40.2662193,50.2738545 40.5540019,49.991658 40.5820485,49.5127791 L40.5820485,48.3791066 L42.4965348,48.3791066 C43.0117389,48.3791066 43.4391449,47.968639 43.468411,47.4384517 L43.468411,45.0202354 C43.4391449,44.6470275 43.1428264,44.3367335 42.7513932,44.3367335 L42.7513932,44.3367335 Z" id="Fill-75" fill="#000000" mask="url(#mask-18)"></path>
                        <path d="M49.9146814,48.130505 L49.4086229,48.130505 L49.745792,47.7059886 C49.3031433,47.2979642 48.9501217,47.0915088 48.9501217,47.0915088 L48.5562497,47.4885385 L49.1269374,48.130505 L48.3507778,48.130505 L48.3507778,47.0133245 L49.8872445,47.0133245 L49.8872445,46.3457038 L48.3507778,46.3457038 L48.3507778,45.5217145 L49.8872445,45.5217145 L49.8872445,44.8595911 L45.9162097,44.8595911 L45.9162097,45.5217145 L47.3039074,45.5217145 L47.3039074,46.3457038 L45.9162097,46.3457038 L45.9162097,47.0133245 L47.3039074,47.0133245 L47.3039074,48.130505 L45.8887728,48.130505 L45.8887728,48.7962932 L49.9146814,48.7962932 L49.9146814,48.130505 Z M50.590239,43.5347336 L45.8887728,43.5347336 L45.8887728,44.1876947 L50.269532,44.1876947 L50.269532,49.0198515 C50.269532,49.255626 50.0835708,49.4425354 49.846394,49.4425354 L45.536361,49.4425354 L45.536361,43.5347336 L44.4937586,43.5347336 L44.4937586,50.1095453 L50.3634272,50.1095453 C50.8865575,50.1095453 51.3157927,49.6874722 51.3157927,49.1554524 L51.3157927,44.2524411 C51.3157927,43.8596871 50.9981343,43.5347336 50.590239,43.5347336 L50.590239,43.5347336 Z" id="Fill-76" fill="#000000" mask="url(#mask-18)"></path>
                        <path d="M67.3482129,27.0911074 C66.6744845,27.7660579 65.5843248,27.7660579 64.9118158,27.0911074 C64.3673456,26.5450389 63.6948366,25.87131 63.6948366,25.87131 C63.6948366,25.87131 64.3673456,25.198192 64.9118158,24.6521235 C65.5843248,23.9790054 66.6744845,23.9790054 67.3482129,24.6521235 C67.685382,24.9880717 67.8493937,25.4303017 67.8493937,25.87131 C67.8493937,26.3141508 67.685382,26.7533268 67.3482129,27.0911074 M69.6651072,22.3340809 C67.7134286,20.3758082 64.5478195,20.3758082 62.5955312,22.3340809 C62.0370378,22.8929765 61.3785521,23.5550999 61.3785521,23.5550999 L59.5360114,21.7092172 L57.2215561,24.026649 L59.0622675,25.87131 L57.2215561,27.7171927 L59.5360114,30.0376786 L61.3785521,28.1924067 C61.3785521,28.1924067 62.0370378,28.8502544 62.5955312,29.4115933 C64.5478195,31.3674226 67.7134286,31.3674226 69.6651072,29.4115933 C70.6388124,28.4336786 71.1265797,27.1540213 71.1265797,25.87131 C71.1265797,24.5898203 70.6388124,23.3095523 69.6651072,22.3340809" id="Fill-77" fill="#E60027" mask="url(#mask-18)"></path>
                        <path d="M35.9029587,25.8721652 C35.9029587,25.4281027 36.0718481,24.988316 36.4065784,24.6529786 C37.0790874,23.9774173 38.1704665,23.9774173 38.844195,24.6529786 C39.3874457,25.1984363 40.059345,25.8721652 40.059345,25.8721652 C40.059345,25.8721652 39.3874457,26.545894 38.844195,27.0913517 C38.1704665,27.766913 37.0790874,27.766913 36.4065784,27.0913517 C36.0718481,26.7535711 35.9029587,26.3137843 35.9029587,25.8721652 M32.6282116,25.8721652 C32.6282116,27.1542657 33.1159788,28.4345337 34.092123,29.4100051 C36.0419724,31.3676669 39.2069718,31.3676669 41.1592601,29.4100051 C41.7201923,28.8504987 42.3780684,28.1932618 42.3780684,28.1932618 L44.220609,30.0385337 L46.5368935,27.7180478 L44.6894752,25.8721652 L46.5368935,24.0262825 L44.220609,21.7100723 L42.3780684,23.5553442 C42.3780684,23.5553442 41.7201923,22.8938316 41.1592601,22.3343252 C39.2069718,20.3766634 36.0419724,20.3766634 34.092123,22.3343252 C33.1159788,23.3097966 32.6282116,24.5882322 32.6282116,25.8721652" id="Fill-78" fill="#E60027" mask="url(#mask-18)"></path>
                        <path d="M57.8459591,36.6106578 C57.17345,37.2843867 56.0863389,37.2843867 55.4095619,36.6106578 C54.7644897,35.9625832 54.1925827,35.3896388 54.1925827,35.3896388 L56.0351233,33.5461994 L53.7182291,31.227546 L51.8781273,33.0728179 L50.0355867,31.227546 L47.7211313,33.5461994 L49.5618428,35.3896388 C49.5618428,35.3896388 48.9911552,35.9625832 48.3448636,36.6106578 C47.6723546,37.2843867 46.5828046,37.2843867 45.9102955,36.6106578 C45.2359574,35.9375398 45.2359574,34.8435703 45.9102955,34.1698414 C46.6157289,33.4612961 51.8781273,28.1917959 51.8781273,28.1917959 C51.8781273,28.1917959 57.139916,33.4612961 57.8459591,34.1698414 C58.5178584,34.8435703 58.5178584,35.9375398 57.8459591,36.6106578 M45.9102955,17.5733894 C45.2359574,16.9002714 45.2359574,15.8069127 45.9102955,15.132573 C46.5828046,14.459455 47.6723546,14.459455 48.3448636,15.132573 C48.9911552,15.7824801 49.5618428,16.3542028 49.5618428,16.3542028 L47.7211313,18.2000855 L50.0355867,20.5169065 L51.8781273,18.6710238 L53.7182291,20.5169065 L56.0351233,18.2000855 L54.1925827,16.3542028 C54.1925827,16.3542028 54.7644897,15.7824801 55.4095619,15.132573 C56.0863389,14.459455 57.17345,14.459455 57.8459591,15.132573 C58.5178584,15.8069127 58.5178584,16.9002714 57.8459591,17.5733894 C57.139916,18.2825455 51.8781273,23.5526566 51.8781273,23.5526566 C51.8781273,23.5526566 46.6157289,18.2825455 45.9102955,17.5733894 M54.1907536,25.8725317 C54.1907536,25.8725317 59.6196026,20.4362789 60.1622436,19.8926536 C62.1127027,17.9392675 62.1127027,14.769749 60.1622436,12.8145304 C58.2123942,10.8593119 55.0455656,10.8593119 53.0951065,12.8145304 L51.8781273,14.033717 C51.8781273,14.033717 51.4275523,13.5823248 50.6611481,12.8145304 C48.7094696,10.8593119 45.5456896,10.8593119 43.5958402,12.8145304 C41.6423325,14.769749 41.6423325,17.9392675 43.5958402,19.8926536 C44.136652,20.4362789 49.5636719,25.8725317 49.5636719,25.8725317 C49.5636719,25.8725317 44.136652,31.3093952 43.5958402,31.8517988 C41.6423325,33.8070174 41.6423325,36.9734819 43.5958402,38.9317545 C45.5456896,40.8851406 48.7094696,40.8851406 50.6611481,38.9317545 C51.4275523,38.1657926 51.8781273,37.7082922 51.8781273,37.7082922 C51.8781273,37.7082922 52.329312,38.1657926 53.0951065,38.9317545 C55.0455656,40.8851406 58.2123942,40.8851406 60.1622436,38.9317545 C62.1127027,36.9734819 62.1127027,33.8070174 60.1622436,31.8517988 C59.6196026,31.3093952 54.1907536,25.8725317 54.1907536,25.8725317" id="Fill-79" fill="#E60027" mask="url(#mask-18)"></path>
                        <path d="M4.59940086,58.853483 C4.66463972,58.853483 4.72804946,58.8443207 4.78963007,58.8259963 C4.82255436,58.8186665 4.85303981,58.8040069 4.88230584,58.7826284 C4.91096216,58.7459795 4.93108256,58.7044441 4.94205732,58.6574114 C4.95608063,58.5957191 4.96400684,58.5315835 4.96400684,58.4662263 L4.96400684,54.5154754 L5.50177019,54.5154754 L5.50177019,58.6409194 C5.50177019,58.7502552 5.48957601,58.8516505 5.46396823,58.945716 C5.43531191,59.0257328 5.3877546,59.09109 5.32312545,59.1423984 C5.26459339,59.1784365 5.20301278,59.2053123 5.13777391,59.2236368 C5.01095444,59.249291 4.88230584,59.2621181 4.75182811,59.2621181 C4.63903194,59.2621181 4.53050374,59.2456261 4.42502408,59.2132529 C4.29454636,59.1729392 4.17321426,59.1167442 4.06102781,59.0440572 L4.06102781,58.8259963 L4.59940086,58.853483 Z M4.45794837,54.9302188 L4.45794837,57.7692865 C4.44697361,57.9397038 4.35795609,58.0288828 4.19150553,58.0362126 L3.91957532,58.0362126 L3.91957532,54.9302188 L4.45794837,54.9302188 Z M1.4880558,55.4255897 C1.75998602,55.1061335 1.99777253,54.7591906 2.20080563,54.3853719 L2.74466606,54.4776049 C2.69040196,54.5869408 2.63369902,54.6920009 2.57577667,54.794007 C2.97147781,55.1861502 3.37754401,55.5679095 3.79397526,55.9380634 L3.66349753,56.167119 C3.44583142,56.0687778 3.24096919,55.9508905 3.04952057,55.8128463 C2.79161366,55.6204396 2.54833976,55.4097085 2.32030859,55.1806529 C2.02642885,55.5874556 1.6709685,55.9270687 1.25392754,56.1994922 L3.2885265,56.1994922 C3.28120999,56.5812515 3.27023523,56.9587351 3.25560221,57.3331646 C3.25194396,57.4382248 3.23609152,57.5402309 3.20682549,57.6379613 C3.18121771,57.7143131 3.1397575,57.7802811 3.08183514,57.8346437 C3.0312293,57.8706818 2.97452636,57.8981684 2.91294575,57.9158821 C2.80075929,57.9452012 2.68674371,57.9580283 2.57028929,57.9543634 C2.36725619,57.9543634 2.18617261,57.8926711 2.02642885,57.7692865 L2.02642885,57.5890961 L2.42395913,57.6165828 C2.48493003,57.6202476 2.54529122,57.6147503 2.60321357,57.6000907 C2.6318699,57.5890961 2.6593068,57.5726041 2.68491458,57.5512256 C2.7135709,57.5151875 2.73186217,57.4748737 2.73917868,57.430895 C2.75015344,57.3692027 2.75746995,57.305678 2.76112821,57.2403208 C2.767835,57.0259247 2.77515151,56.8078638 2.78307773,56.5867488 L1.75449864,56.5867488 L1.75449864,58.3684959 C1.75084038,58.4485127 1.75449864,58.5260862 1.7654734,58.6030488 C1.77278991,58.6537465 1.79412972,58.6971143 1.83071226,58.7337632 C1.86363655,58.7588066 1.89960938,58.7752986 1.93985017,58.7826284 C2.0227706,58.797288 2.10630073,58.8027853 2.18983087,58.7991204 L2.82087969,58.7991204 C2.90380011,58.8027853 2.98915937,58.7991204 3.07634776,58.7881258 C3.13792837,58.780796 3.1940216,58.7606391 3.24462745,58.7282659 C3.27755173,58.6989468 3.30437893,58.6641303 3.32632845,58.6244274 C3.36656925,58.5480755 3.39888383,58.4662263 3.4244916,58.3794906 L3.68544706,58.3794906 C3.65618103,58.5175348 3.61837907,58.651914 3.57143147,58.7826284 C3.53484893,58.8736398 3.47875571,58.955489 3.40254208,59.0275652 C3.34827798,59.074598 3.28486824,59.1112468 3.21231287,59.1369011 C3.0854934,59.1698851 2.9568448,59.1857663 2.82636707,59.1857663 L1.96118999,59.1857663 C1.83802877,59.1857663 1.71608697,59.1729392 1.596584,59.1472849 C1.51000532,59.1222415 1.4337917,59.0788737 1.36855284,59.0165705 C1.32160524,58.9658729 1.28685183,58.9078455 1.2649023,58.8424883 C1.23258773,58.7264335 1.21795471,58.6061029 1.22100326,58.4827183 L1.22100326,56.2214815 C1.08016048,56.3082172 0.935049732,56.3870123 0.786280734,56.4560344 L0.67226515,56.2379735 C0.969193436,55.9942583 1.24173336,55.7236673 1.4880558,55.4255897 L1.4880558,55.4255897 Z" id="Fill-80" fill="#000000" mask="url(#mask-18)"></path>
                        <path d="M14.7423979,56.6846014 L14.7423979,59.0661687 C14.7423979,59.1419098 14.714961,59.2090994 14.6606969,59.2677376 C14.6064328,59.3111055 14.5448522,59.332484 14.4759551,59.332484 L14.2089026,59.332484 L14.2089026,56.6846014 L13.6382149,56.6846014 L13.6382149,56.695596 C13.6382149,57.0077224 13.6248013,57.3186272 13.5998033,57.6270888 C13.5741955,57.8744688 13.5205411,58.1157407 13.437011,58.3521261 C13.3498226,58.5738519 13.2284905,58.7729775 13.072405,58.9513355 C12.9309525,59.111369 12.7785252,59.2579646 12.6157329,59.3929547 L12.4303814,59.2677376 C12.5791504,59.071666 12.7084087,58.863989 12.8169369,58.6465389 L12.7620631,58.7063987 C12.588296,58.6227171 12.4340396,58.513992 12.2999037,58.3790019 C12.1657677,58.2372929 12.0493133,58.0833675 11.9517598,57.9160042 L12.3273406,57.7199326 L12.8766884,58.5097163 C12.9638768,58.2776067 13.0236283,58.0357239 13.0559428,57.7852898 C13.0961836,57.4078062 13.1138652,57.0297118 13.1108166,56.6516174 L13.1108166,54.9902008 C13.4656673,54.9572168 13.8192985,54.9046867 14.1711006,54.8319997 C14.4466891,54.7776372 14.7167902,54.7049502 14.9814039,54.6139388 L15.161268,55.0115793 C14.9106776,55.1062556 14.6552096,55.1734453 14.3942541,55.2131482 C14.1442734,55.2571269 13.8918539,55.2662891 13.6382149,55.2406349 L13.6382149,56.2869608 L15.280771,56.2869608 L15.280771,56.6846014 L14.7423979,56.6846014 Z M10.461631,55.3713493 L10.461631,55.006082 L11.5713014,55.006082 C11.4877713,54.9443897 11.4188742,54.8680378 11.3646101,54.7776372 C11.3066877,54.6829609 11.2591304,54.5809548 11.2231576,54.4722297 L11.7237287,54.3799967 L11.9956589,55.006082 L12.8437641,55.006082 L12.8437641,55.3713493 L10.461631,55.3713493 Z M11.9249326,56.5972548 L11.9249326,57.1964643 L12.8821758,57.1964643 L12.8821758,57.5672289 L11.9249326,57.5672289 L11.9249326,58.7717559 C11.9249326,58.8591025 11.911519,58.9440057 11.886521,59.0276874 C11.8651811,59.0930446 11.8267695,59.1455746 11.7725054,59.1858884 C11.7212898,59.2145967 11.6688548,59.2365861 11.6145907,59.2512456 C11.5060625,59.2689593 11.3975343,59.2787323 11.2883964,59.2787323 C11.2268158,59.2744566 11.1688935,59.2604078 11.1140196,59.2347536 C11.0384157,59.1913858 10.970738,59.1400773 10.9134254,59.0820499 L10.9134254,58.880481 L11.1359692,58.9079676 C11.2085245,58.9146866 11.2737634,58.8951405 11.3316858,58.8481078 C11.3572935,58.8224536 11.3737557,58.7919128 11.3810722,58.7552639 C11.3914372,58.7009014 11.3975343,58.6440956 11.3975343,58.5860682 L11.3975343,57.5672289 L10.37993,57.5672289 L10.37993,57.1964643 L11.3975343,57.1964643 L11.3975343,56.5972548 L10.3146911,56.5972548 L10.3146911,56.2264902 L11.3103459,56.2264902 C11.161577,56.1507491 11.0341478,56.0505755 10.9292778,55.9271909 C10.8317244,55.7964765 10.7573399,55.652935 10.7061243,55.4965663 L11.1414566,55.398836 L11.4896004,56.1397545 L11.3481479,56.2264902 L11.729216,56.2264902 C11.8560355,55.9687263 11.9737093,55.7042434 12.0822376,55.4312092 L12.5498844,55.491069 C12.4889135,55.6474376 12.414529,55.7964765 12.3273406,55.9381855 C12.26576,56.0432457 12.1932046,56.1397545 12.1096745,56.2264902 L12.9364399,56.2264902 L12.9364399,56.5972548 L11.9249326,56.5972548 Z M10.8805011,58.520711 C10.7280738,58.7241124 10.5408932,58.8914756 10.3201785,59.02219 L10.178726,58.896973 C10.2951805,58.7369395 10.4000504,58.5677437 10.4945553,58.3899966 C10.6030835,58.1792655 10.7012467,57.9618153 10.7878253,57.7364246 L11.2554721,57.7962845 C11.161577,58.0540484 11.0359769,58.2959311 10.8805011,58.520711 L10.8805011,58.520711 Z" id="Fill-81" fill="#000000" mask="url(#mask-18)"></path>
                        <path d="M27.0392531,58.8642333 C27.1368065,58.8642333 27.2349697,58.8532386 27.3325231,58.8312493 C27.3873969,58.8208654 27.4343445,58.8007085 27.4739756,58.7720002 C27.5288494,58.7213026 27.5648222,58.6589995 27.5831135,58.5863125 C27.6087213,58.4849172 27.6245737,58.3792463 27.6318902,58.2705212 L27.7294437,56.9029066 L24.5967588,56.9029066 L24.7821103,54.5268366 L25.3912096,54.5268366 L25.3369455,55.2188899 L28.5623062,55.2188899 L28.5623062,55.6385197 L25.3040212,55.6385197 L25.2442698,56.4722821 L28.3556148,56.4722821 C28.315374,57.1118053 28.2739138,57.7488853 28.2300148,58.3847436 C28.2196497,58.5411122 28.1903837,58.6919835 28.1434361,58.8373574 C28.1031953,58.9460825 28.0379564,59.0370939 27.9477195,59.1097809 C27.8715059,59.1604785 27.7891951,59.1946842 27.7026165,59.2130086 C27.5428727,59.2459926 27.3819095,59.2600414 27.2185075,59.2569873 C26.8520724,59.2527116 26.5027091,59.1836895 26.1685886,59.049921 L26.1685886,58.8373574 L27.0392531,58.8642333 Z M23.8352322,58.0683415 L27.3983717,58.0683415 L27.3983717,57.6487116 L23.8352322,57.6487116 L23.8352322,58.0683415 Z" id="Fill-82" fill="#000000" mask="url(#mask-18)"></path>
                        <path d="M36.7849638,56.3904329 L37.6611156,56.3904329 L37.6611156,55.2463766 L36.7849638,55.2463766 L36.7849638,56.3904329 Z M38.1879042,54.8756119 L38.1879042,56.3904329 C38.1879042,56.4991579 38.1482731,56.5883369 38.0684012,56.657359 C38.0177954,56.6976728 37.9617021,56.7251595 37.9001215,56.7392082 C37.8202497,56.7575327 37.7403778,56.7642516 37.6605059,56.7605867 L36.2685402,56.7605867 L36.2685402,54.8756119 L38.1879042,54.8756119 Z M34.7613396,58.8972173 L37.1654222,58.8972173 L37.1654222,58.3413757 L34.7613396,58.3413757 L34.7613396,58.8972173 Z M34.7613396,58.0029843 L37.1654222,58.0029843 L37.1654222,57.502116 L34.7613396,57.502116 L34.7613396,58.0029843 Z M37.7580593,57.1588381 L37.7580593,58.9021038 C37.7550108,59.0041099 37.7117215,59.0859591 37.6281913,59.1476514 C37.566001,59.1806354 37.5025913,59.2038464 37.4373524,59.2185059 C37.3471155,59.2362196 37.2562688,59.2459926 37.1654222,59.2459926 L34.1687024,59.2459926 L34.1687024,57.1588381 L37.7580593,57.1588381 Z M34.5436735,54.9134824 L36.0069751,54.9134824 L36.0069751,55.2512631 L35.2295961,55.2512631 C35.2222796,55.3862532 35.2186213,55.5206325 35.2186213,55.6550117 C35.2149631,55.6910498 35.2131339,55.7258663 35.2131339,55.7582395 L36.078311,55.7582395 L36.078311,56.1015174 L35.1747223,56.1015174 L35.141798,56.2322318 C35.483235,56.4466279 35.8295498,56.6500292 36.1813518,56.8424359 L36.0728236,57.0824862 C35.9021051,57.0458373 35.7387031,56.9933072 35.5826176,56.9242851 C35.372268,56.8296088 35.1716737,56.7172189 34.9790057,56.5865045 C34.8558445,56.7575327 34.7015881,56.8919119 34.5168463,56.9896423 C34.3863685,57.0623293 34.2497937,57.1240216 34.1089509,57.1747192 C33.9315256,57.2400764 33.7534906,57.2968822 33.5760653,57.343915 L33.4943643,57.0983674 C33.6498401,57.0372859 33.8022673,56.9645989 33.9510363,56.8809173 C34.071149,56.8118952 34.1833354,56.730046 34.2882054,56.6359805 C34.4479491,56.4899957 34.5601356,56.3122486 34.6253745,56.1015174 L33.5541157,56.1015174 L33.5541157,55.7582395 L34.6906133,55.7582395 C34.6906133,55.7325852 34.6930522,55.7038769 34.6961007,55.6708929 C34.6930522,55.5328488 34.6942716,55.3929721 34.7015881,55.2512631 L34.3046675,55.2512631 C34.148582,55.4369508 33.9674984,55.5859897 33.7608071,55.6983796 L33.6193546,55.5401785 C33.7388576,55.3984695 33.8443372,55.2445441 33.9345742,55.0771808 C34.0613936,54.855455 34.1705315,54.624567 34.2613782,54.3851275 L34.7613396,54.4394901 C34.699759,54.6068533 34.6272036,54.7644436 34.5436735,54.9134824 L34.5436735,54.9134824 Z" id="Fill-83" fill="#000000" mask="url(#mask-18)"></path>
                        <path d="M47.1751369,58.1176953 C47.4257273,58.4231028 47.675708,58.7285102 47.9256887,59.0333069 L47.7793585,59.1915079 C47.6013235,59.1108804 47.4385312,59.0082635 47.2891525,58.8806031 C47.1263602,58.7352292 46.9775912,58.573974 46.8434552,58.3956161 C46.8251639,58.3736268 46.8087018,58.3522482 46.7940688,58.3302589 L47.1751369,58.1176953 Z M46.370321,54.8809871 L46.370321,54.5157198 L46.8757698,54.5157198 L46.8757698,54.8809871 L47.7848459,54.8809871 L47.7848459,55.1589079 L46.8757698,55.1589079 L46.8757698,55.4692018 L47.6866827,55.4692018 L47.6866827,55.7257441 L46.8757698,55.7257441 L46.8757698,56.0360381 L47.8933741,56.0360381 L47.8933741,56.3139589 L46.8757698,56.3139589 L46.8757698,56.5430145 L46.370321,56.5430145 L46.370321,56.3139589 L45.5758702,56.3139589 L45.5758702,56.0360381 L46.370321,56.0360381 L46.370321,55.7257441 L45.6362313,55.7257441 L45.6362313,55.4692018 L46.370321,55.4692018 L46.370321,55.1589079 L45.5868449,55.1589079 L45.5868449,54.8809871 L46.370321,54.8809871 Z M44.8308058,58.1830525 L44.8308058,58.6845315 C44.8271475,58.7388941 44.8326349,58.7895917 44.8472679,58.8372353 C44.8619009,58.8769382 44.8875087,58.9093114 44.9234815,58.9349657 C44.9521378,58.9532901 44.983233,58.9661172 45.0155476,58.9728362 C45.0807864,58.9874957 45.1484641,58.9948255 45.2173613,58.9948255 L46.0112024,58.9948255 C46.0837578,58.9948255 46.1563131,58.9917715 46.2288685,58.9838309 C46.2867909,58.9771119 46.341055,58.9606199 46.3916608,58.9349657 C46.4825074,58.8806031 46.5501851,58.8042513 46.5934745,58.7065209 L46.8434552,58.7065209 C46.8074823,58.8005864 46.7672416,58.8952627 46.7239522,58.9893282 C46.6873697,59.0620152 46.638593,59.1237075 46.5770123,59.1750159 C46.504457,59.2257136 46.4264142,59.26053 46.3428841,59.2782436 C46.2563054,59.2929032 46.169117,59.300233 46.0825383,59.300233 L44.9509184,59.300233 C44.8381223,59.300233 44.7259358,59.2892383 44.6131396,59.267249 C44.536926,59.2525894 44.469858,59.2202162 44.4125454,59.1695186 C44.3759628,59.1292048 44.3485259,59.0840045 44.3308444,59.0333069 C44.3052366,58.9386306 44.2942618,58.8439542 44.2979201,58.7498887 L44.2979201,58.1830525 L44.8308058,58.1830525 Z M46.9471057,57.7475415 L46.9471057,57.4855019 L43.6345567,57.4855019 L43.6345567,57.2130784 L46.9471057,57.2130784 L46.9471057,56.9516496 L43.5260285,56.9516496 L43.5260285,56.6792262 L47.4799914,56.6792262 L47.4799914,57.7475415 C47.4763331,57.8379421 47.436702,57.9051317 47.3604884,57.9491104 C47.3056146,57.9741538 47.2495214,57.9924783 47.191599,58.0034729 C47.1080689,58.0175217 47.0263679,58.0236298 46.9471057,58.0193541 L45.6033071,58.0193541 C45.7807324,58.2300853 45.9660839,58.4340974 46.1581423,58.630169 L46.0166898,58.7822619 C45.8679208,58.742559 45.7301265,58.6790342 45.6033071,58.5916877 C45.4691711,58.4933465 45.3496681,58.3815674 45.2441885,58.253907 C45.2301651,58.2392475 45.2173613,58.2227555 45.2063865,58.2050418 L45.4892915,58.0193541 L43.4498149,58.0193541 L43.4498149,57.7475415 L46.9471057,57.7475415 Z M44.161955,54.8809871 L44.161955,54.5212171 L44.6838659,54.5212171 L44.6838659,54.8809871 L45.4130779,54.8809871 L45.4130779,55.1589079 L44.6838659,55.1589079 L44.6838659,55.4692018 L45.3697885,55.4692018 L45.3697885,55.7257441 L44.6838659,55.7257441 L44.6838659,56.0360381 L45.4350274,56.0360381 L45.4350274,56.3139589 L44.6838659,56.3139589 L44.6838659,56.5430145 L44.161955,56.5430145 L44.161955,56.3139589 L43.1339856,56.3139589 L43.1339856,56.0360381 L44.161955,56.0360381 L44.161955,55.7257441 L43.3565294,55.7257441 L43.3565294,55.4692018 L44.161955,55.4692018 L44.161955,55.1589079 L43.2480012,55.1589079 L43.2480012,54.8809871 L44.161955,54.8809871 Z M43.6668713,58.1940472 L44.1778074,58.2923884 C44.0589141,58.5135034 43.9150228,58.7138507 43.7485723,58.8915978 C43.5888285,59.0589611 43.4022575,59.1835673 43.1882497,59.267249 L43.0419195,59.1096587 C43.2845837,58.8299055 43.4931042,58.524498 43.6668713,58.1940472 L43.6668713,58.1940472 Z" id="Fill-84" fill="#000000" mask="url(#mask-18)"></path>
                        <path d="M54.5445677,58.0848335 L55.7085022,58.0848335 L55.7085022,57.0769889 L54.5445677,57.0769889 L54.5445677,58.0848335 Z M56.2365102,56.7062242 L56.2365102,58.0848335 C56.2365102,58.1941693 56.1962694,58.2827375 56.1163975,58.3523704 C56.0657917,58.3884085 56.0090887,58.4140627 55.9475081,58.4281114 C55.8682459,58.4464359 55.7883741,58.4537657 55.7085022,58.4501008 L54.0171694,58.4501008 L54.0171694,56.7062242 L56.2365102,56.7062242 Z M53.7610916,56.1668746 L56.4919783,56.1668746 L56.4919783,55.7967208 L53.7610916,55.7967208 L53.7610916,56.1668746 Z M52.9178641,54.7717734 L57.3345961,54.7717734 L57.3345961,58.6247938 C57.3345961,58.7408487 57.3205728,58.8514062 57.2913068,58.9564663 C57.2693572,59.0187695 57.2370427,59.073132 57.1931436,59.1201647 C57.1279048,59.1781922 57.0504717,59.2166735 56.9596251,59.2349979 C56.8358541,59.2600414 56.7108638,59.2728685 56.5840443,59.2728685 C56.4718579,59.2728685 56.3615005,59.2582089 56.2523626,59.2295006 C56.1218849,59.1891868 55.998114,59.1384892 55.8822693,59.0767969 L55.8822693,58.875228 L56.3993025,58.9021038 C56.4645414,58.9021038 56.5279511,58.8929416 56.5901414,58.875228 C56.6261142,58.8678982 56.6565997,58.8514062 56.6822075,58.825752 C56.714522,58.7970437 56.7364716,58.7591731 56.7474463,58.7115296 C56.7584211,58.6498373 56.7639085,58.5844801 56.7639085,58.515458 L56.7639085,55.1700247 L53.483674,55.1700247 L53.483674,59.0279317 C53.483674,59.1006187 53.4598954,59.1659759 53.4129478,59.2240033 C53.3550254,59.2820307 53.2861283,59.310739 53.2062564,59.310739 L52.9178641,59.310739 L52.9178641,54.7717734 Z" id="Fill-85" fill="#000000" mask="url(#mask-18)"></path>
                        <path d="M64.4809954,55.1975114 L67.0643324,55.1975114 L67.0643324,54.7888762 L64.4809954,54.7888762 L64.4809954,55.1975114 Z M65.5144521,58.8697306 C65.575423,58.8697306 65.6376134,58.8605684 65.699194,58.842244 C65.7357765,58.8312493 65.766262,58.8153681 65.79126,58.7933788 C65.8241843,58.7573407 65.8461338,58.7151945 65.8571086,58.6681617 C65.8711319,58.6028045 65.8784484,58.5374473 65.8784484,58.4714793 L65.8784484,56.7825761 L64.2194302,56.7825761 L64.2194302,56.3739409 L67.2929733,56.3739409 L67.2929733,56.7825761 L66.48267,56.7825761 L66.48267,58.5863125 C66.48267,58.7023673 66.4643788,58.8153681 66.4277962,58.9240932 C66.4021884,58.9863963 66.3662156,59.0425913 66.319268,59.0932889 C66.2430544,59.1586461 66.1576951,59.2038464 66.0638,59.2295006 C65.9290543,59.2582089 65.7949183,59.2728685 65.661392,59.2728685 C65.5266463,59.2728685 65.3961686,59.2569873 65.2693491,59.2240033 C65.1242384,59.1836895 64.984615,59.129327 64.850479,59.0603049 L64.850479,58.842244 L65.5144521,58.8697306 Z M62.9847695,55.2628686 C63.2243851,55.0154885 63.4524163,54.7571138 63.6700824,54.4883552 L64.110902,54.7668869 C63.84263,55.1010026 63.545092,55.4027452 63.2188977,55.6708929 C62.9829403,55.8639104 62.723814,56.0123385 62.440909,56.1180094 L62.3378682,55.845586 C62.5658994,55.6708929 62.7817364,55.4766538 62.9847695,55.2628686 L62.9847695,55.2628686 Z M62.9634297,56.7880734 C63.2134103,56.4899957 63.448758,56.1797017 63.6700824,55.8565807 L64.1273641,56.1070148 C63.9639621,56.3434001 63.7901951,56.5663476 63.6048435,56.7770787 L63.6048435,59.033429 C63.6048435,59.106116 63.5810649,59.1708624 63.5341173,59.2295006 C63.4761949,59.2911929 63.4054687,59.3223445 63.3225483,59.3223445 L63.0335462,59.3223445 L63.0335462,57.343915 C62.8164898,57.5326568 62.5805324,57.6908578 62.3268935,57.8185182 L62.2451924,57.5344892 C62.5024896,57.3060444 62.7421053,57.056832 62.9634297,56.7880734 L62.9634297,56.7880734 Z" id="Fill-86" fill="#000000" mask="url(#mask-18)"></path>
                        <polygon id="Fill-87" fill="#000000" mask="url(#mask-18)" points="19.119255 57.2040384 19.8094456 57.2040384 19.8094456 56.4637307 19.119255 56.4637307"></polygon>
                    </g>
                </g>
                <line x1="84.0189873" y1="0.421686747" x2="84.0189873" y2="69.5783133" id="直线备份" stroke="url(#linearGradient-19)" stroke-linecap="square"></line>
            </g>
        </g>
    </g>
</svg>