<?xml version="1.0" encoding="UTF-8"?>
<svg width="161px" height="148px" viewBox="0 0 161 148" version="1.1" xmlns="http://www.w3.org/2000/svg" xmlns:xlink="http://www.w3.org/1999/xlink">
    <title>形状备份</title>
    <defs>
        <linearGradient x1="100%" y1="92.2514563%" x2="0%" y2="7.74854365%" id="linearGradient-1">
            <stop stop-color="#DFE6FA" offset="0%"></stop>
            <stop stop-color="#A4CAF1" offset="100%"></stop>
        </linearGradient>
        <rect id="path-2" x="0" y="0" width="161" height="148" rx="4"></rect>
        <linearGradient x1="50%" y1="0%" x2="50%" y2="100%" id="linearGradient-4">
            <stop stop-color="#D6E2F9" offset="0%"></stop>
            <stop stop-color="#AECFF2" offset="100%"></stop>
        </linearGradient>
    </defs>
    <g id="页面-1" stroke="none" stroke-width="1" fill="none" fill-rule="evenodd">
        <g id="首页-待办" transform="translate(-16.000000, -653.000000)">
            <rect id="矩形备份-5" fill="#FFFFFF" x="0" y="4" width="360" height="984"></rect>
            <g id="蒙版" transform="translate(16.000000, 653.000000)">
                <mask id="mask-3" fill="white">
                    <use xlink:href="#path-2"></use>
                </mask>
                <use fill="url(#linearGradient-1)" opacity="0.4" xlink:href="#path-2"></use>
                <path d="M143.526397,138.999877 L138.449342,133.829593 C142.551854,128.132706 144.972493,121.111333 144.972493,113.515485 C144.972493,99.4727388 136.704596,87.4087435 124.852896,82.0310102 L124.852896,28.4770843 C124.852896,27.5036667 124.774304,26.5462067 124.601401,25.6047044 C121.520588,8.45021387 91.2783188,-5.03401361 54.4185888,-5.03401361 C17.5588587,-5.03401361 -12.6834102,8.43425621 -15.748505,25.6047044 C-15.9056894,26.5302491 -16,27.4717513 -16,28.4292113 L-16,104.754726 C-15.638476,123.121999 15.7512387,137.946671 54.4185888,137.946671 C65.0914061,137.946671 75.2140783,136.813676 84.2836152,134.787053 C90.4923971,142.829716 100.159235,148 111.004955,148 C118.644114,148 125.701691,145.430816 131.376046,141.106288 L136.421664,146.228699 C137.411926,147.234032 138.685119,147.72872 139.97403,147.72872 C141.262942,147.72872 142.551854,147.234032 143.526397,146.228699 C145.491201,144.233991 145.491201,140.994585 143.526397,138.999877 Z M-6,45.3061224 C6.45416667,54.9369374 29.1067708,61.3785316 55,61.3785316 C80.8932292,61.3785316 103.545833,54.9369374 116,45.3061224 L116,57.478841 C114.014323,58.6471694 111.885677,59.7523448 109.645833,60.8101557 C94.8723958,67.6938201 75.4763021,71.4829932 55,71.4829932 C34.5236979,71.4829932 15.1276042,67.6938201 0.354166667,60.8101557 C-1.9015625,59.7523448 -4.01432292,58.6471694 -6,57.478841 L-6,45.3061224 L-6,45.3061224 Z M54.52918,122.829932 C34.2109214,122.829932 14.9645337,119.040759 0.305122912,112.157094 C-1.93319572,111.099284 -4.02964909,109.994108 -6,108.82578 L-6,96.6530612 C6.35804091,106.283876 28.8358041,112.72547 54.52918,112.72547 C62.5209233,112.72547 70.1816476,112.10973 77.3537249,110.95719 C77.2749109,111.904483 77.2276224,112.867564 77.2276224,113.830646 C77.2276224,116.325185 77.4955902,118.740783 78,121.077439 C70.4969037,122.22998 62.5997373,122.829932 54.52918,122.829932 L54.52918,122.829932 Z M83.59375,95.0705957 C74.5867188,96.7757236 64.9125,97.6598639 55,97.6598639 C34.5236979,97.6598639 15.1276042,93.8706909 0.354166667,86.9870264 C-1.9015625,85.9292156 -4.01432292,84.8240401 -6,83.6557117 L-6,71.4829932 C6.45416667,81.1138081 29.1067708,87.5554024 55,87.5554024 C80.8932292,87.5554024 103.545833,81.1138081 116,71.4829932 L116,80.0244209 C114.745052,79.8823269 113.474219,79.819174 112.1875,79.819174 C100.241667,79.819174 89.7414062,85.8818509 83.59375,95.0705957 L83.59375,95.0705957 Z M128.973684,129.851056 C124.442105,134.413462 118.410526,136.92517 112,136.92517 C106.110526,136.92517 100.536842,134.794987 96.1473684,130.916148 C95.7684211,130.582313 95.3894737,130.216685 95.0263158,129.851056 C91.7894737,126.592195 89.5789474,122.554386 88.6,118.150949 C88.2052632,116.402291 88,114.590047 88,112.761905 C88,111.045041 88.1736842,109.344074 88.5210526,107.706695 C89.4684211,103.176083 91.7105263,99.0269961 95.0263158,95.6727533 C99.5578947,91.1103473 105.589474,88.5986395 112,88.5986395 C117.052632,88.5986395 121.868421,90.1565342 125.894737,93.0497673 C126.984211,93.8287146 128.010526,94.7030433 128.973684,95.6727533 C133.505263,100.235159 136,106.307769 136,112.761905 C136,119.21604 133.505263,125.28865 128.973684,129.851056 Z" id="形状" fill="url(#linearGradient-4)" fill-rule="nonzero" opacity="0.2" mask="url(#mask-3)"></path>
            </g>
            <text id="签收单查询及核查" font-family="PingFangSC-Semibold, PingFang SC" font-size="18" font-weight="500" fill="#4D5E9E">
                <tspan x="25.5" y="690">签收单查询及核查</tspan>
            </text>
        </g>
    </g>
</svg>