<?xml version="1.0" encoding="UTF-8"?>
<svg width="161px" height="71px" viewBox="0 0 161 71" version="1.1" xmlns="http://www.w3.org/2000/svg" xmlns:xlink="http://www.w3.org/1999/xlink">
    <title>编组 8</title>
    <defs>
        <linearGradient x1="100%" y1="59.7237761%" x2="0%" y2="40.2762239%" id="linearGradient-1">
            <stop stop-color="#E6DEFF" offset="0%"></stop>
            <stop stop-color="#9D88F1" offset="100%"></stop>
        </linearGradient>
        <rect id="path-2" x="0" y="0" width="161" height="71" rx="4"></rect>
        <linearGradient x1="50%" y1="1.94219843%" x2="50%" y2="100%" id="linearGradient-4">
            <stop stop-color="#D2C8FD" offset="0%"></stop>
            <stop stop-color="#BAAAFB" offset="100%"></stop>
        </linearGradient>
    </defs>
    <g id="页面-1" stroke="none" stroke-width="1" fill="none" fill-rule="evenodd">
        <g id="首页-待办" transform="translate(-183.000000, -730.000000)">
            <rect id="矩形备份-5" fill="#FFFFFF" x="0" y="4" width="360" height="984"></rect>
            <g id="编组-8" transform="translate(183.149254, 730.000000)">
                <g id="路径-3备份-2">
                    <mask id="mask-3" fill="white">
                        <use xlink:href="#path-2"></use>
                    </mask>
                    <use id="蒙版" fill="url(#linearGradient-1)" opacity="0.3" xlink:href="#path-2"></use>
                    <path d="M13.5601405,72.6906615 C13.5601405,72.6906615 73.3557171,38.4453497 122.469071,70.9211272 C146.66131,86.9180344 135.885119,113.451891 103.203317,110.009732 C69.5368596,106.463865 13.5601405,72.6906615 13.5601405,72.6906615 Z" id="路径-3" stroke="#D8CFFE" stroke-width="6" opacity="0.2" stroke-linecap="round" mask="url(#mask-3)" transform="translate(74.591501, 83.623343) rotate(-13.000000) translate(-74.591501, -83.623343) "></path>
                </g>
                <g id="调拨报表" opacity="0.3" transform="translate(109.850746, 17.244629)" fill-rule="nonzero">
                    <rect id="矩形" fill="#000000" opacity="0" x="0" y="0" width="48" height="48.6907185"></rect>
                    <path d="M23.6913989,35.5351574 C23.6913989,34.6866713 23.7730875,33.8598618 23.9304135,33.0578256 L17.0231955,33.0578256 C16.2244633,33.0299556 15.5891082,32.7760291 15.1201556,32.2960461 C14.651203,31.816063 14.4031119,31.1688601 14.3758824,30.3482439 L14.3758824,30.0509641 C14.4031119,29.2334446 14.651203,28.583145 15.1201556,28.103162 C15.5891082,27.6231789 16.2214378,27.3692524 17.0231955,27.3413824 L26.6200836,27.3413824 C28.89526,24.5853508 32.2989483,22.8326385 36.0989771,22.8326385 C38.5284541,22.8326385 40.7945541,23.5510647 42.7066705,24.786634 L42.7066705,21.1201829 C42.679441,19.5966238 42.1620804,18.3269912 41.1545887,17.3112852 C40.147097,16.2955791 38.9005907,15.7598561 37.4120444,15.7010195 L34.2261922,15.7010195 L34.2261922,9.73064977 L40.0593574,9.73064977 C40.8580896,9.73064977 41.4994957,9.49220658 41.9835759,9.01222353 C42.4646305,8.53224049 42.7066705,7.86955423 42.7066705,7.02106808 L42.7066705,6.76714156 C42.7066705,5.94962206 42.4646305,5.29312912 41.9835759,4.79766276 C41.4994957,4.30529306 40.8611151,4.05755987 40.0593574,4.05755987 L5.64731307,4.05755987 C4.8485809,4.05755987 4.20717476,4.30529306 3.72309465,4.79766276 C3.23901455,5.29312912 3,5.94652539 3,6.76714156 L3,7.02106808 C3,7.86645756 3.24204005,8.53224049 3.72309465,9.01222353 C4.20414926,9.49220658 4.8455554,9.73064977 5.64731307,9.73064977 L11.4804783,9.73064977 L11.4804783,15.447093 L8.29462613,15.447093 C6.80607982,15.4749629 5.55654805,16.0044926 4.55208183,17.035682 C3.54459012,18.0668714 3.02722951,19.3426973 3,20.8662563 L3,39.0281953 C3.02722951,40.5517544 3.54459012,41.821387 4.55208183,42.837093 C5.55957355,43.8527991 6.80607982,44.3885221 8.29462613,44.4473587 L27.2614897,44.4473587 C25.0528742,42.1558268 23.6913989,39.0096153 23.6913989,35.5351574 Z M17.3106181,9.73064977 L28.6865005,9.73064977 L28.6865005,15.7010195 L17.3106181,15.7010195 L17.3106181,9.73064977 L17.3106181,9.73064977 Z M42.3980694,29.1064813 C40.7249676,27.3940257 38.6313211,26.5052829 36.1141046,26.4433496 C33.5787351,26.5052829 31.4729866,27.3940257 29.7998847,29.1064813 C28.1267829,30.818937 27.2584642,32.961829 27.1979542,35.5382541 C27.2584642,38.1332592 28.1298084,40.2823446 29.8150122,41.9855102 C31.4971906,43.6886758 33.5968881,44.5712253 36.1141046,44.6331586 C38.6282956,44.5712253 40.7219421,43.6824825 42.3980694,41.9700269 C44.0741968,40.2575713 44.93949,38.1146792 45,35.5382541 C44.93949,32.961829 44.0711713,30.818937 42.3980694,29.1064813 Z M41.6840513,38.0899059 C41.4208327,38.3593157 41.1152572,38.495569 40.7703501,38.495569 L34.9886184,38.495569 C34.6437113,38.495569 34.3381357,38.3593157 34.0749172,38.0899059 C33.8116986,37.8204961 33.6695001,37.4984429 33.6483216,37.1237465 L33.6483216,30.9892535 C33.6695001,30.6362338 33.8116986,30.3203739 34.0749172,30.0385774 C34.3381357,29.756781 34.6437113,29.617431 34.9886184,29.617431 C35.3335254,29.617431 35.6421265,29.756781 35.9174471,30.0385774 C36.1927676,30.3203739 36.3289151,30.6362338 36.3289151,30.9892535 L36.3289151,35.7550206 L40.8006051,35.7550206 C41.1455122,35.7766973 41.4480622,35.9222405 41.7143063,36.1916504 C41.9775249,36.4610602 42.1045959,36.77692 42.0955194,37.1423265 C42.0834174,37.5046363 41.9472698,37.8204961 41.6840513,38.0899059 Z" id="形状" fill="url(#linearGradient-4)"></path>
                </g>
            </g>
            <text id="调拨报表" font-family="PingFangSC-Medium, PingFang SC" font-size="16" font-weight="400" fill="#634D9E">
                <tspan x="192.5" y="761">调拨报表</tspan>
            </text>
        </g>
    </g>
</svg>