<?xml version="1.0" encoding="UTF-8"?>
<svg width="161px" height="71px" viewBox="0 0 161 71" version="1.1" xmlns="http://www.w3.org/2000/svg" xmlns:xlink="http://www.w3.org/1999/xlink">
    <title>编组 9</title>
    <defs>
        <linearGradient x1="100%" y1="59.7237761%" x2="0%" y2="40.2762239%" id="linearGradient-1">
            <stop stop-color="#FFF1E5" offset="0%"></stop>
            <stop stop-color="#F4CCAA" offset="100%"></stop>
        </linearGradient>
        <linearGradient x1="50%" y1="0%" x2="50%" y2="99.1258741%" id="linearGradient-2">
            <stop stop-color="#FEDBB3" offset="0%"></stop>
            <stop stop-color="#FDC0A1" offset="100%"></stop>
        </linearGradient>
    </defs>
    <g id="页面-1" stroke="none" stroke-width="1" fill="none" fill-rule="evenodd">
        <g id="首页-待办" transform="translate(-183.000000, -653.000000)">
            <rect id="矩形备份-5" fill="#FFFFFF" x="0" y="4" width="360" height="984"></rect>
            <g id="编组-9" transform="translate(183.000000, 653.000000)" opacity="0.3">
                <g id="编组-7">
                    <rect id="矩形备份-4" fill="url(#linearGradient-1)" x="0" y="0" width="161" height="71" rx="4"></rect>
                    <g id="采购物流报表" transform="translate(110.000000, 15.895522)" fill-rule="nonzero">
                        <path d="M19.4610143,13.7240883 L19.4610143,22.3543847 C19.4610143,26.5904707 22.6294607,30.0244968 26.5379373,30.0244968 L46,30.0244968 L46,38.9025096 C46,41.3244485 44.247791,43.3209827 42.0159544,43.4420796 L41.8062679,43.4477612 L40.6792023,43.4477612 C40.4488375,39.1371154 37.1563578,35.7693648 33.1724217,35.7693648 C29.1884856,35.7693648 25.8960058,39.1371154 25.6656411,43.4477612 L20.3333106,43.4477612 C20.1029458,39.1371154 16.8104661,35.7693648 12.8265299,35.7693648 C8.84259384,35.7693648 5.5501141,39.1371154 5.31974934,43.4477612 L4.1937322,43.4477612 C1.95910055,43.4477612 0.11697377,41.5486818 0.00524217548,39.1297722 L0,38.9025096 L0,27.308709 C0,26.3826241 0.26135876,25.4786943 0.748581221,24.7179156 L0.900604034,24.494062 L7.47742451,15.4558291 C8.2207832,14.4345797 9.33223151,13.8074543 10.5304615,13.7331787 L10.7695043,13.7252246 L19.4610143,13.7252246 L19.4610143,13.7240883 Z M12,39.2089552 C14.209139,39.2089552 16,41.1067333 16,43.4477612 C16,45.7887891 14.209139,47.6865672 12,47.6865672 C9.790861,47.6865672 8,45.7887891 8,43.4477612 C8,41.1067333 9.790861,39.2089552 12,39.2089552 Z M33,39.2089552 C35.209139,39.2089552 37,41.1067333 37,43.4477612 C37,45.7887891 35.209139,47.6865672 33,47.6865672 C30.790861,47.6865672 29,45.7887891 29,43.4477612 C29,41.1067333 30.790861,39.2089552 33,39.2089552 Z M41.8062679,3.17910448 C44.1224022,3.17910448 46,5.21408297 46,7.7243561 L46,26.1894408 L26.5379373,26.1894408 C24.583699,26.1894408 22.9994758,24.4724277 22.9994758,22.3543847 L22.9994758,7.7243561 C22.9994758,5.21408295 24.8770737,3.17910448 27.193208,3.17910448 L41.8062679,3.17910448 Z" id="形状" fill="url(#linearGradient-2)"></path>
                        <rect id="矩形" fill="#FFFFFF" opacity="0.45921689" x="33" y="7.41791045" width="4" height="13.7761194" rx="2"></rect>
                        <rect id="矩形备份-7" fill="#000000" opacity="0" x="0" y="0" width="48" height="50.8656716"></rect>
                    </g>
                </g>
            </g>
            <text id="采购物流报表" font-family="PingFangSC-Medium, PingFang SC" font-size="16" font-weight="400" fill="#945B45">
                <tspan x="192.5" y="685">采购物流报表</tspan>
            </text>
        </g>
    </g>
</svg>